<mxfile host="app.diagrams.net" agent="Mozilla/5.0 (Macintosh; Intel Mac OS X 10_15_7) AppleWebKit/537.36 (KHTML, like Gecko) Chrome/128.0.0.0 Safari/537.36 Edg/128.0.0.0" version="24.7.7">
  <diagram name="第 1 页" id="tB6K48ipFgOqcQLHMNH7">
    <mxGraphModel dx="1353" dy="850" grid="0" gridSize="10" guides="1" tooltips="1" connect="1" arrows="1" fold="1" page="0" pageScale="1" pageWidth="1169" pageHeight="827" math="0" shadow="0">
      <root>
        <mxCell id="0" />
        <mxCell id="1" parent="0" />
        <mxCell id="5Xm6pE8ULsqPC4je_U9q-30" style="edgeStyle=none;curved=1;rounded=0;orthogonalLoop=1;jettySize=auto;html=1;entryX=0;entryY=0.5;entryDx=0;entryDy=0;fontSize=12;startSize=8;endSize=8;" edge="1" parent="1" source="5Xm6pE8ULsqPC4je_U9q-1" target="5Xm6pE8ULsqPC4je_U9q-9">
          <mxGeometry relative="1" as="geometry" />
        </mxCell>
        <mxCell id="5Xm6pE8ULsqPC4je_U9q-1" value="" style="image;aspect=fixed;perimeter=ellipsePerimeter;html=1;align=center;shadow=0;dashed=0;spacingTop=3;image=img/lib/active_directory/user_accounts.svg;" vertex="1" parent="1">
          <mxGeometry x="40" y="200" width="41.24" height="40" as="geometry" />
        </mxCell>
        <mxCell id="5Xm6pE8ULsqPC4je_U9q-5" value="Cloudflare" style="points=[[0,0],[0.25,0],[0.5,0],[0.75,0],[1,0],[1,0.25],[1,0.5],[1,0.75],[1,1],[0.75,1],[0.5,1],[0.25,1],[0,1],[0,0.75],[0,0.5],[0,0.25]];outlineConnect=0;gradientColor=none;html=1;whiteSpace=wrap;fontSize=12;fontStyle=0;container=1;pointerEvents=0;collapsible=0;recursiveResize=0;shape=mxgraph.aws4.group;grIcon=mxgraph.aws4.group_aws_cloud;strokeColor=#022366;fillColor=none;verticalAlign=top;align=left;spacingLeft=30;fontColor=#232F3E;dashed=0;strokeWidth=2;" vertex="1" parent="1">
          <mxGeometry x="240" y="80" width="160" height="400" as="geometry" />
        </mxCell>
        <mxCell id="5Xm6pE8ULsqPC4je_U9q-8" value="" style="shape=image;verticalLabelPosition=bottom;labelBackgroundColor=default;verticalAlign=top;aspect=fixed;imageAspect=0;image=data:image/png,iVBORw0KGgoAAAANSUhEUgAAAbAAAAByCAYAAAAyGYQhAAAEDmlDQ1BrQ0dDb2xvclNwYWNlR2VuZXJpY1JHQgAAOI2NVV1oHFUUPpu5syskzoPUpqaSDv41lLRsUtGE2uj+ZbNt3CyTbLRBkMns3Z1pJjPj/KRpKT4UQRDBqOCT4P9bwSchaqvtiy2itFCiBIMo+ND6R6HSFwnruTOzu5O4a73L3PnmnO9+595z7t4LkLgsW5beJQIsGq4t5dPis8fmxMQ6dMF90A190C0rjpUqlSYBG+PCv9rt7yDG3tf2t/f/Z+uuUEcBiN2F2Kw4yiLiZQD+FcWyXYAEQfvICddi+AnEO2ycIOISw7UAVxieD/Cyz5mRMohfRSwoqoz+xNuIB+cj9loEB3Pw2448NaitKSLLRck2q5pOI9O9g/t/tkXda8Tbg0+PszB9FN8DuPaXKnKW4YcQn1Xk3HSIry5ps8UQ/2W5aQnxIwBdu7yFcgrxPsRjVXu8HOh0qao30cArp9SZZxDfg3h1wTzKxu5E/LUxX5wKdX5SnAzmDx4A4OIqLbB69yMesE1pKojLjVdoNsfyiPi45hZmAn3uLWdpOtfQOaVmikEs7ovj8hFWpz7EV6mel0L9Xy23FMYlPYZenAx0yDB1/PX6dledmQjikjkXCxqMJS9WtfFCyH9XtSekEF+2dH+P4tzITduTygGfv58a5VCTH5PtXD7EFZiNyUDBhHnsFTBgE0SQIA9pfFtgo6cKGuhooeilaKH41eDs38Ip+f4At1Rq/sjr6NEwQqb/I/DQqsLvaFUjvAx+eWirddAJZnAj1DFJL0mSg/gcIpPkMBkhoyCSJ8lTZIxk0TpKDjXHliJzZPO50dR5ASNSnzeLvIvod0HG/mdkmOC0z8VKnzcQ2M/Yz2vKldduXjp9bleLu0ZWn7vWc+l0JGcaai10yNrUnXLP/8Jf59ewX+c3Wgz+B34Df+vbVrc16zTMVgp9um9bxEfzPU5kPqUtVWxhs6OiWTVW+gIfywB9uXi7CGcGW/zk98k/kmvJ95IfJn/j3uQ+4c5zn3Kfcd+AyF3gLnJfcl9xH3OfR2rUee80a+6vo7EK5mmXUdyfQlrYLTwoZIU9wsPCZEtP6BWGhAlhL3p2N6sTjRdduwbHsG9kq32sgBepc+xurLPW4T9URpYGJ3ym4+8zA05u44QjST8ZIoVtu3qE7fWmdn5LPdqvgcZz8Ww8BWJ8X3w0PhQ/wnCDGd+LvlHs8dRy6bLLDuKMaZ20tZrqisPJ5ONiCq8yKhYM5cCgKOu66Lsc0aYOtZdo5QCwezI4wm9J/v0X23mlZXOfBjj8Jzv3WrY5D+CsA9D7aMs2gGfjve8ArD6mePZSeCfEYt8CONWDw8FXTxrPqx/r9Vt4biXeANh8vV7/+/16ffMD1N8AuKD/A/8leAvFY9bLAAAAbGVYSWZNTQAqAAAACAAEARoABQAAAAEAAAA+ARsABQAAAAEAAABGASgAAwAAAAEAAgAAh2kABAAAAAEAAABOAAAAAAAAAJAAAAABAAAAkAAAAAEAAqACAAQAAAABAAABsKADAAQAAAABAAAAcgAAAADG8PMqAAAACXBIWXMAABYlAAAWJQFJUiTwAAAbSklEQVR4Ae2dB5QUxdbH78zsLssSRIIBRcUMogj6MAumJ+YcMGfF+KlPH5gD6DEr5gAmVEQUnwoKisghCDx8uAgGggQFAclh04T++j8ww4Sq6Z6ZntnpnX+dnTPd1RVu/Wq2b9etW9UewwzCQAIkQAIkQAIuI+B1mbwUlwRIgARIgATCBKjA+EMgARIgARJwJQEqMFd2G4UmARIgARKgAuNvgARIgARIwJUEqMBc2W0UmgRIgARIgAqMvwESIAESIAFXEqACc2W3UWgSIAESIAEqMP4GSIAESIAEXEmACsyV3UahSYAESIAEqMD4GyABEiABEnAlASowV3YbhSYBEiABEqAC42+ABEiABEjAlQSowFzZbRSaBEiABEiACoy/ARIgARIgAVcSoAJzZbdRaBIgARIgASow/gZIgARIgARcSYAKzJXdRqFJgARIgASowPgbIAESIAEScCUBKjBXdhuFJgESIAESoALjb4AESIAESMCVBKjAXNltFJoESIAESIAKjL8BEiABEiABVxKgAnNlt1FoEiABEiCBEiJIIFC3UUILpklwUaUYKxeJsW65BNcuN79XSHDNkrjEvrZ7S4n58e3YSbzt8OkiUt4sLg1PSIAESIAEckPAY5ghN0W7p9RA5WcSnDHKVFozJLBsXlaCl+zUWco6HS3eLqeJd9s9syqLmUmABEiABPQEileB+aslMPl9qR37hgRXLNQTyuJK6W4HSdkRl4iv6xlZlMKsJEACJEACKgLFp8D8NeIf/bTUjHtHjJp1KiaOx8HUWH7yneLr1NPxslkgCZAACRQrgaJSYMGfR0vNkD7mXNbSeunvRvseJ2UXPSeexi3qpX5WSgIkQAINiUBxKDDT+aJm2F1SN2N0vfedt1lraXzhk+Lr+M96l4UCkAAJkICbCTR4BWbM+142vHp53syF9n4MHinvcZmUnfaAiK/UXhamIgESIAESiCPQoBVYcOZXUjXwOjGCdXGNLpSTkvZdpKL3ELreF0qHUA4SIAFXEWiwCiwwfpBUfXRPwXeGb/s9peLGj8TTrE3By0oBSYAESKCQCDRIBeYf87xU/+fRQuKcUpaSbXaTips/Emm+Xcp0vEgCJEACJLCFQIPbSio4bairlBe6IrB8nlQ9d6YYVau39AyPSIAESIAEUhJoUAosOHeibBx8e8oGF+rFwN8LpPbt6wtVPMpFAiRAAgVHoMEoMGPJLKl67XKRULDgINsVqO6XceKfMMhucqYjARIggaIm0DAUmBGU6jd7m67yG1zfmTWfPCyhZbNd3w42gARIgARyTaBBKDD/mBfMTXjn5ppVXso3ArVS88ZVeamLlZAACZCAmwm4XoEZK+dLzcjn3NwHSbJDGWO/RgYSIAESIAE9AdcrsNoh/xYjUKNvoUuv1Hz9khgbVrhUeopNAiRAArkn4GoFZiz5Rep+m5B7SvVQg1FbJf4xA+qhZlZJAiRAAu4gUDBvZDbW/y3G/MkSMJWSJxAwd6ZoKd62HcW7434imt3b/d+96g7KGUpZN+kjKTvh3yJlTTIsgdlIgARIoOESqFcFZqxebL5U8j0JVI4Sv6m4dMHbvI2U7N5NGv3zNvG07bApWfU6qZ32mS5Lg4gPVa+V4NSh4jvcXB7AQAIkQAIkEEeg3raS8o9+VmpGvyBGXVWcQFYnZV1PlPIT+0hg1tdSNfxhq+Suv17avqs0vvUL17eDDSABEiABpwnkXYHBMaH6tUslsGB6Vm3xlDcvsFekZNWclJmbPTBZPC13SpmGF0mABEig2Ajk1YkDLu9Vjx2ftfJCJxk164qmrwL/G140bWVDSYAESMAugfwpsKBfql6/XIJr/7IrG9NtJuD/8SuyIAESIAESSCCQNwVW+/HdElzCLZIS+Ns6DSyqFKN6ja20TEQCJEACxUIgLwostHCa1E4YXCxMc9JOT0l5TsploSRAAiTgVgJ5caOvHdLHrXwKQu5GXU8RKd2kwEJzhktgfP9NclWYa+XKW4uY356KVuJpso25du4QkW27FoTcFIIESIAEckkg5wostGi6+Bf/nMs2NPiySw8+P9rG0MwPosdStUpC5kfMv2iY/qZIo63E1+5w8e3cQ2Tno6KXeEACJEACDYlAzhWYf+qQhsQr723xtdhBvHtvUkJG1VIJrf7dWoZacwH03BHhj5S3kJKuV4p3r3NFPD7rvExBAiRAAi4hkPM5sOCCSpegKEwxy/5xWlQw44/x0WPbBzVrJDDpKfEPP1eMxRNtZ2NCEiABEih0ArlXYA3kPV311ZElh14Yrdr4Y1L0ON0DY81C8Y+6RQJj7xCpXpludqYnARIggYIjkFsF5q8W7KrOkBmB0l0PFE+r9psym2+dDi3+b2YFxeQKzR8rdcMvEFn2v5hYHpIACZCA+wjkVoGZbxdmyJxA6cHmvNXmYCz9rxhBh957VrNS6kZeL6EFX0eK5zcJkAAJuI5AThWYEQy4DkihCIwd+H0HnhMVx4nRV7QwHBgBCXzbV4w5n8ZF84QESIAE3EIgpwrM09Rco8SQEYHy43qLp6RRNK+xMjdLEfwT+pvvYRsVrYcHJEACJOAWAjlVYIDga7unW1gUjJyl5jvPSo68Ok4eY+2fceeOnRiG+MfeTQ9Fx4CyIBIggXwRcHwdWGj2ODGW/y7BVX9IaNUiMdb8na+2NJh6yi9+TrFmK5TT9vm/u0/KzjTX7DVuk9N6WDgJkAAJOEXAAQVmCJRW4IfhUlf5jbkzxGqnZCu+cjxeaXrly+LZoVNS2z1l5vvPZFlSvGMR5uLnwLd9pOSkgY4VGVvQL7/8Im+//bbMnTtXli5dKh6PR9q1aycdO3aUk046Sbp06RKb3PbxyJEjJRBInms99dRTbZeRScJVq1aF2zNt2jT566+/ZOPGjbLtttuG24S6jz/++EyKDecZO3asrF+/Pin/YYcdJq1atUqKj0R89913sm5d8muGrPIh/48//iiLFi2KFJX07fV6pXXr1uH27bDDDknXM4mYN2+ezJo1K5Os0Txbb721HHHEEdFz1cHXX38t1dXVSZdy/RuJVHjbbbeJ3++PnIa/S0pK5JlnnomLS/dk5cqVMnGivbWdLVu2lF133VXatm2bbjXR9LNnz5Zff/01ep7JQdOmTeXoo4/OJKsyT1YvtAzOnSC1Q/pKYPk8ZeGMTI9Ak/MeEd9hlykzBSf1l+CvuX8vWOlR/cTTvqdShkwiBw0aJE899ZT8/HPqObxddtlFrrzySrnnnnvSqgb/EFAeicEwTaO5CFOmTJG7775bxowZk7J4KLOrr75aHn44/beGt2/fXhYsWJBUPpT1CSeckBQfidh9990FSiExWOVD+jPOOEM+/dS+Q88+++wjBxxwgFx//fVy0EEHJVZp6/zee++Vfv362UqrS4QHICsluM0228jffydbgpYsWSLbb7+9rmhH4ocMGSK9evVSljV48GC58MIt6zyViVJEfvnll3LiiSemSJF8qXHjxgIehxxySPi3id+M3XDrrbfKs88+aze5Mh0eWlM9KCkzpYjMaA7MWP+31L7TWzYOOJfKKwVcu5c85U2lae93tcoL5Xj3OsNucVmlC0wdkFX+SOYZM2aER1dQSlbKC3lww8YNDT/wb775JlJMwXyvWbNGTjnlFDn44IMtlReEXrZsWfjmjFHLsGHDCqYdTgkCpfHOO++EeRx55JFZP5k7JVehlfP8889rRXrhhRe013J1ASPRhQsXChRr586dZcSIEbmqKi/lpq3AjHmTZGO/7lI77T95EbChV1K212HStO8Y8XY4JmVTPa06im/vLdtKpUycxUVj43IJ/fphFiWI4Mny0EMPFZgN0w1//vmnnH766QJzWKEEtANP+l988UXaIsHMc84558gdd9yRdl63ZBg/frx069ZN3njjDbeInBc58buZNEm/e87kyZMtR4+5FLSqqkrOPffcgvpfS7e9aSmwwKinZP1zZ0uIL1dMl3NSet/2e0jFla9I+Q0fiWfrdknXVRG+Q+8V7w7dVJccjQvOeCfj8vBPee211yrNenYLhUkQJq3ff7feuDhXpsKIrJAFc3SY58omPPnkkzJw4MBsiijovJizg8n09ddfty2nE32XTRnZ5LXTSPS5VXjiiSeskmivOyE/lNh5552nrSP2ghP1xZbnxLFtBVb34R1SNeIpJ+os2jI8jSqk0T/OCJsLm/QdJyWd03c0KDn+JSntfq94mttTepnANjYsy3iXDow28E+hC5gb2n///QVzXqkCTHZnnnlmqiTha3AGyWW44oorZP78+doqmjRpEm6PnTbdcsstyrktbeEuvHDNNdfIzJkzbUnuRN9lU0Y2ea0aiP+Bjz/+2CqZDB8+POOHPafkX758uaQydUYa4VR9kfKc+LblhRiYPFhqJr7nRH1Zl+Epa2xOCPlMLzZTdJ/5ehAcezcde8xjnBtmvNe8bsTFl5pvE4lcLzHzxOSNHPvMcjbnj5bpKQ3HiXkNeYzNaTz4NusIl2MeG+a1cFw4jVkX6sZ1s86wzOYoy9PSGaXj2e00KTU/2M/QCJneTSHTC69mtflZI0bdWjGqzU+d6Y1mehYaNZu+pXa9GP5kZwddhxhzPhfZ5TjdZWX8Y489JjABqgK85+677z65+eab4y4/9NBDgidVldddZWWlvPvuu3LxxRfH5cnXCeZ5hg4dqq3uxhtvlAceeCDOM/DDDz+UPn36KBUVRnPXXXedfPXVV9oyC+0CnDRiPSrhQYob8+jRo7Wi3nXXXfLZZ59pr1tdAKOXX37ZKllBX3/11Vdl7dq1ljLCa/SVV16R22+/3TKt3QRwroF3bGyAZeS9994T3bzb559/LjfddFNsFtvHDz74YPh/23YGBxOad9nUwfizUqqH3ps6UQ6vlnXsIeWXvSpS3iyHtbi0aPPNy4njj8TzuJaZCsw/pKepyKrjolUnQXPnex8UXmkT1WVl3IABA5TxGHVNmDBBVB5PUGrwiMK8l2rkBg/G+lJg+MfUBSgqzB8kBphjevbsGZ4TgttxYhg1apT88ccfYWeVxGuFeN6pUydJdDfHKAsjB/SLygMUN0N4mu20006F2KS8yASlZDdA2TmpwFT1wvkInzZt2sj999+flASOHW4MlibEqtevNrfNq623tnnNuSIqL2fwGytm2lJekdqMpT9EDi2/4XQBt2RVwChKpbwiaY877jjt0x9GYdnOP0XqSfdb5w0Jd2KV8oqUv9VWW4XXiEXOE78/+eSTxCjXnWOOMtWcHhR8sQas41M9vBxzzDHhpQeJXObMmWPLszUxXybnp52mdgSrq6vLpLh6z5NyBBac8KYEV6tNQvmSvGbM64JPJHjKKkyTXsR0B/NhxMSH41jz4WYT4WazYcQEuMn8WBo2M4aPwyZBmPpMFMhvfrybTYIRE2AkHa5tKsesE+VuNiHCrBiWY3MZKCtqUiwpE0+LHcXTZtdIE5z7XmfudLJxmWk6XBU2HUqNabKoXbfJfGiaDg3zWExTYsg0H0rVirTrDS2dJr52R9rKp3PH3XPPPQUKyipgJKZ6mkc+ePLler1OonwwuaxebZplFeHOO+9UxMZH4WkXI8vvv/8+/oJ5Nm7cOMF8mNsDRpuPPPKIYMlEYsADTaaelxi92TFBYmSf6Rq0RHmdPNctUIZpFCbYH35IfjDE+ioouFwHnWcwlq9kGl577bXwiNwqf4cOHeT999+3SpbW9ZQKrGb0i2kVlo/ERt0mB4FUy1SD+RAkzTrgwFG69xHSqOftyp027BZn/D5CgnNGmu8Gm2I3S8bpjNXzbOeFklGFrl27qqKT4ioqKmxNJCdmzJVnlG40iX/07bbbLlEM5TkWmaoUmJMLOZUVOxhpxRcemioFpuMXK5qubCy8xscq4AEhlZu6VX5d/Vb5Ul2HgoIJNTFg8fDZZ58dNpNjjjBxzhdLNJDX7m8L5acrP+bbdGbxfffdN1HkpHNdfYsXLxZ8rEIw6PydWavAAuMHSnCN2iRkJSivJxPAiz3rKkeFP00uelZ83ZLnT5JzbYkxZg2WwIz3TAeN5B0FtqRy9shYZ3/0rRutpNr6yAlpc+UZpVPI2LrIbsATpypgGyq3BCu+WB+nCvAitQpWZRd6fpV8utFXxFUdD2p4sFGZWJ9++ml5/PHHVcUq43T8YJJUbc2GZSmqrcZQOMziVkFXn1W+XF7XKrC6KQ1v94Bcgkyn7I2D/08qzPdxlRx0gXU209PQP76fGKa5MN/BWGf9VBWRqVmzZpHDuO8NGzbEnTt9onsqzLYebFGlCjozpyqtav89pIPrfT5DNjceK766NjZv3tyyiVZlWxVQ3/lV8mG/T1WI9fCDZ6dKgWFnk3QUmK79UFLY29JuOP/881POUUfK0dUXuV4f32onjnVLJbCosj7kKZo6az7pJ2KxIDxUOdB8c/K19aK8oh1RbW/uTDdHZXdNULS+AjnQzQlgr0GVt6RK7ERX5kgamJNShbKyMuVl3agwkljntp3OqDFSlt1v7A2pClZtVOVxexzc1LGFWGLAfOgee+wRjcbWW9jvMjEgL3axyWeALB988EE+q3S0LuUILDDd/qaejkpTRIVhN5NA5QgpOVi9mWdwwv0SnD2i3okY1SvF07i1pRzYSkgVMGGNvRB1pqZInm+//VbrSoz5Aad2QI/UZ/Wdau7upZdekn/9619WRYT3m1MlSlU20utGL6l2AofyWrFC/bABZ4dcBNSpW6x7dBY7jkNe3QNRbDuwoXAhBd1iYDgE2R0FY53WRRddlPNm4aEGTjZ9+/bNuq6CWwcWmKN+qsq6pSwgjkBogemNpFBgoSmPFYTygrAem4ufzzrrLIF9XzU6ueCCC1KaNLATAHa8UK1FwSsgUikvuzeGOPA2TtAWPDnj5pMY+vfvH94VPtUNFG1WPY2jLEzmpwq60QvWXul2b4cnmCrAXGm164kqXyQuFV+40uvmuuzssq4rG+XmYyGzrv5I29P5xqJ33Wg0nXJQBspK9duKlJeN/DvuuGPayiub+iIyO/2tNCGG1i13uh6WpyAQqjLd3hNCaPYnEpj1UUJsPZ6Wqee2VBIde+yxqmjBWi5MKqtGCHgtyYEHHqhUXigMu9mnCrm0y19yySXKqnHT7t69u9IDDq/twA1YZ5bBsgIr12+8v0sVMJKFB1timD59unbuBFtcZRNUfDG/gt0esN5JFeCkYGcRs6pslKeLV9WVTZyT9WSzp2FiG+yWpZMffYNr+Lz11luJxYfPf/rpJ7GzHCQ2s66+2DT5PlaaEGWjev1LvoVr8PV5PXFNNKqWSnDKM3Fx9X7SqIVtEWD+gEJSOTrgpoenSqwJg/kC5ifE4R9JF2BKUt2wY9Prngpx49Zdi82PjYexPkcVevfuLTAXqubxMB+Fthx11FHR+QwoaLhQq9ofKR/lWQWM0PDOMVV49NFHo6/CaNGihfz2229KV/1IXuxNmU2AU0HsBr3wNlWNlGPrwJZidoKuf3TxdspMJw22yMKLJa0CRtOp1rShvzE6diqgrBdffNHS2ccOp0svvTTsMIJ3hyUGKEpYTqweqCL5dPVhazTV+9Yi+RK/dabWxHR2zpW9F1yvtqXbKZBp7BPwtdo5LnFw6rNp7ZQRlzlXJxVtbJcMxwfc8G644QZlHpgKMdFtN+g8umLz654KMeqzE6xuxvAWgykxcd0Oyoa5VLeAW1U3FKKdxaoYpSGd7qWZ2Fw41QbDkbrxAJDtgmnwsWIUqQ/feOLH9lN2gq7vdPF2ykwnjerBRJXf6gYPZaNyT8eOLCpnjdg68ACS6MmJsuzsj2iXE/6P9tprL+XCfHgg2vktQWZdfVjrqFrvGNvO2GMnFZjShGjU5Nb1ObYxxXzs2alztPnG+iUSmj8mel4IB54mqb3lVDLCRfjyyy9XXUorDjsTxG4im1ZmBxPD+SSdfe10VR9++OHh0ZzuemI89pXEDTCbkO/3c2Gkhif+YguxI9TYtuOBBebdVB/dG5Wd+M1FZMH+h7r1aXiRLKwQbg1KBRbePd2tLXKR3L5dD4lKG5pprh8xbdaFFLyt1YtUrWQcNGiQ1tnAKi/Mi9huJtuRg1U96VyHCQmjoUy9+bBbBV76mE6A4vz0008Fb3TOJMCMd/LJJ2eSNe08bdu2Db9F+6qrrko7r9szYL/MuXPnKpth5zes82ZFmbq9OJWVWUTiwQKbTKsCHIB0o31V+kKKUyowb0XLQpKxQcpS2raDeJptNs8FAxKcN6rg2unZJnM3ZczhwIxn14kA3nLY3RwmlV69ehUcC7iFw4091Sa+iULDmxCKJJM3OaOsHj16hJcgpDOPhXU9U6dOTXuCPlF2q3O0De7emP/ANkJ2TKNWZbrxum5kg4cHO9tCwTyt28ZJV3amnGBKbNlSfW+Hw5LKgzjTuvKVTzkHVrpPDwlOtD9XkS9hG1I9Zd0vizbHWDPH3HS3wMy25S3Eu/OxURkzOdhvv/3C5hO8UwtPeFgThv3e4AiAyXM8uWOkAe9FuF3r1j+lqhsOGNnspA0lYTfAaQJzYth2Z9iwYWFFgVejYGsozFtg7RJuWlDa8FJ0wpwG8w/4gRt2asB6OTydY9I8EAiE30WGeRaYKKH47c4/JbYZLw+Fa7UueL3e8Ks40EY44+DGm20Ae9Xia6eVId4UrZqjsit/KnmwXRiWeiSGdMzoeGWQavPiRo0aJRYbd47F0XgnXWLQvfkBDx14M4TKoQNl4MEn1f8DnJZysZ9hovzpnHvMibnCslulIz3TkgAJkAAJFC0Bb9G2nA0nARIgARJwNQEqMFd3H4UnARIggeIlQAVWvH3PlpMACZCAqwlQgbm6+yg8CZAACRQvASqw4u17tpwESIAEXE2ACszV3UfhSYAESKB4CVCBFW/fs+UkQAIk4GoCVGCu7j4KTwIkQALFS4AKrHj7ni0nARIgAVcToAJzdfdReBIgARIoXgJUYMXb92w5CZAACbiaABWYq7uPwpMACZBA8RKgAivevmfLSYAESMDVBKjAXN19FJ4ESIAEipcAFVjx9j1bTgIkQAKuJkAF5uruo/AkQAIkULwEqMCKt+/ZchIgARJwNQEqMFd3H4UnARIggeIlQAVWvH3PlpMACZCAqwlQgbm6+yg8CZAACRQvASqw4u17tpwESIAEXE2ACszV3UfhSYAESKB4CVCBFW/fs+UkQAIk4GoCVGCu7j4KTwIkQALFS4AKrHj7ni0nARIgAVcToAJzdfdReBIgARIoXgJUYMXb92w5CZAACbiaABWYq7uPwpMACZBA8RKgAivevmfLSYAESMDVBP4fSWHANaGQhgQAAAAASUVORK5CYII=;" vertex="1" parent="5Xm6pE8ULsqPC4je_U9q-5">
          <mxGeometry x="1" y="1" width="151.58" height="40" as="geometry" />
        </mxCell>
        <mxCell id="5Xm6pE8ULsqPC4je_U9q-29" style="edgeStyle=none;curved=1;rounded=0;orthogonalLoop=1;jettySize=auto;html=1;fontSize=12;startSize=8;endSize=8;" edge="1" parent="5Xm6pE8ULsqPC4je_U9q-5" source="5Xm6pE8ULsqPC4je_U9q-4" target="5Xm6pE8ULsqPC4je_U9q-10">
          <mxGeometry relative="1" as="geometry" />
        </mxCell>
        <mxCell id="5Xm6pE8ULsqPC4je_U9q-4" value="" style="image;aspect=fixed;perimeter=ellipsePerimeter;html=1;align=center;shadow=0;dashed=0;spacingTop=3;image=img/lib/active_directory/user_accounts.svg;" vertex="1" parent="5Xm6pE8ULsqPC4je_U9q-5">
          <mxGeometry x="-200" y="240" width="41.24" height="40" as="geometry" />
        </mxCell>
        <mxCell id="5Xm6pE8ULsqPC4je_U9q-10" value="Mobile" style="shape=image;verticalLabelPosition=bottom;labelBackgroundColor=default;verticalAlign=top;aspect=fixed;imageAspect=0;image=data:image/png,iVBORw0KGgoAAAANSUhEUgAAAXIAAACACAYAAAAWCeKvAAAEDmlDQ1BrQ0dDb2xvclNwYWNlR2VuZXJpY1JHQgAAOI2NVV1oHFUUPpu5syskzoPUpqaSDv41lLRsUtGE2uj+ZbNt3CyTbLRBkMns3Z1pJjPj/KRpKT4UQRDBqOCT4P9bwSchaqvtiy2itFCiBIMo+ND6R6HSFwnruTOzu5O4a73L3PnmnO9+595z7t4LkLgsW5beJQIsGq4t5dPis8fmxMQ6dMF90A190C0rjpUqlSYBG+PCv9rt7yDG3tf2t/f/Z+uuUEcBiN2F2Kw4yiLiZQD+FcWyXYAEQfvICddi+AnEO2ycIOISw7UAVxieD/Cyz5mRMohfRSwoqoz+xNuIB+cj9loEB3Pw2448NaitKSLLRck2q5pOI9O9g/t/tkXda8Tbg0+PszB9FN8DuPaXKnKW4YcQn1Xk3HSIry5ps8UQ/2W5aQnxIwBdu7yFcgrxPsRjVXu8HOh0qao30cArp9SZZxDfg3h1wTzKxu5E/LUxX5wKdX5SnAzmDx4A4OIqLbB69yMesE1pKojLjVdoNsfyiPi45hZmAn3uLWdpOtfQOaVmikEs7ovj8hFWpz7EV6mel0L9Xy23FMYlPYZenAx0yDB1/PX6dledmQjikjkXCxqMJS9WtfFCyH9XtSekEF+2dH+P4tzITduTygGfv58a5VCTH5PtXD7EFZiNyUDBhHnsFTBgE0SQIA9pfFtgo6cKGuhooeilaKH41eDs38Ip+f4At1Rq/sjr6NEwQqb/I/DQqsLvaFUjvAx+eWirddAJZnAj1DFJL0mSg/gcIpPkMBkhoyCSJ8lTZIxk0TpKDjXHliJzZPO50dR5ASNSnzeLvIvod0HG/mdkmOC0z8VKnzcQ2M/Yz2vKldduXjp9bleLu0ZWn7vWc+l0JGcaai10yNrUnXLP/8Jf59ewX+c3Wgz+B34Df+vbVrc16zTMVgp9um9bxEfzPU5kPqUtVWxhs6OiWTVW+gIfywB9uXi7CGcGW/zk98k/kmvJ95IfJn/j3uQ+4c5zn3Kfcd+AyF3gLnJfcl9xH3OfR2rUee80a+6vo7EK5mmXUdyfQlrYLTwoZIU9wsPCZEtP6BWGhAlhL3p2N6sTjRdduwbHsG9kq32sgBepc+xurLPW4T9URpYGJ3ym4+8zA05u44QjST8ZIoVtu3qE7fWmdn5LPdqvgcZz8Ww8BWJ8X3w0PhQ/wnCDGd+LvlHs8dRy6bLLDuKMaZ20tZrqisPJ5ONiCq8yKhYM5cCgKOu66Lsc0aYOtZdo5QCwezI4wm9J/v0X23mlZXOfBjj8Jzv3WrY5D+CsA9D7aMs2gGfjve8ArD6mePZSeCfEYt8CONWDw8FXTxrPqx/r9Vt4biXeANh8vV7/+/16ffMD1N8AuKD/A/8leAvFY9bLAAAAbGVYSWZNTQAqAAAACAAEARoABQAAAAEAAAA+ARsABQAAAAEAAABGASgAAwAAAAEAAgAAh2kABAAAAAEAAABOAAAAAAAAAJAAAAABAAAAkAAAAAEAAqACAAQAAAABAAABcqADAAQAAAABAAAAgAAAAADH8s7MAAAACXBIWXMAABYlAAAWJQFJUiTwAABAAElEQVR4Ae1dCYAUxdV+szcLyCXghQqI94HxvhEFvG/wVrxvjb8ajRo1iVcSTTReUSPeJlFRERVFAaN4oQiCiBcgIIrIfe41M//3verq6Zmd7pldZmE31oOeqq569ar6zezrr1+/qoolQeLIacBpwGnAaaDFaqCoxY7cDdxpwGnAacBpQDXgDLn7ITgNOA04DbRwDThD3sK/QDd8pwGnAacBZ8jdb8BpwGnAaaCFa8AZ8hb+BbrhOw04DTgNOEPufgNOA04DTgMtXAPOkLfwL9AN32nAacBpwBly9xtwGnAacBpo4RpwhryFf4Fu+E4DTgNOA86Qu9+A04DTgNNAC9eAM+Qt/At0w3cacBpwGnCG3P0GnAacBpwGWrgGnCFv4V+gG77TgNOA04Az5O434DTgNOA00MI14Ax5C/8C3fCdBpwGnAacIXe/AacBpwGngRauAWfIW/gX6IbvNOA04DRQ0iJVULVApGahSLJWkvFapHXeZcSQBjc8yu88WVJp2i+bKyvHP4Q82uF/WetWIkXh9zorPVsqxeUi5e0hpJ0Uteshxd2PhMyWqW5PuS5xGnAaaKYaiLWkrd7qJj8hxRttJ7F4jUi8KmDAC6Ddik4qZOVHD0nd7PeQj0lRaUxKKksLIBzSytrCmB8uxRsPkFj7rQoi0wlxGnAacBqgBsLhZjPST/zH8bLk73vKipH3AIHDiAN0J8SgW245yl1H7c6jugVpxnk+9YnalRCalPLtTzagPpmQRG1S4rVxownUkZJeSt6GnCerlkrdV89IzZiLJT5jmLZ1H04DTgNOA4XQQLM35KteuUKWPjhQEgvnSmL5AknM+EjdHkXFMORwVcRiMRzI0r8B4rl6RgLn+dQX1cGQg4rLWkn51oNUINslazxDXmQExrxUGnOeoLylUjvuZolPeVj7cx9OA04DTgOrq4Fmbchrxz0qqz4eCgDu/YMtXTriLrjGawCIk5IoKvXReAqZW4SeTwqeRMIcQOA0sslkXEo3O1ASQNyUWQdUngAqt0i8MSnbJONGnuZxXjPpQUn+OHZ1vz/X3mnAacBpoPm6VmqnviLLR/xRYnjZGCsG6i4uwntH5IGEaya/DkAMHzaOGIy5QdwWmeeZ4sv3QDtS4yaJ1a2SGAw6+6rc9SKUmz7iVSjLQOA5zykdCJx9FBnx6cpGWdWYX0tywST3M3QacBpwGlgtDTRPRF6zXFaNvF0vLGmtLc48eyirPvmPJFYtRUkRUHmxpmk+cvJ6zOozt+coTBJ5E4UzxSEJom2kcaSsr14CY56UsvV7m/4oCEd8FaJjSJ5vPCxVxO6heZWHPJ8eKMOmzJMvhqP6w1vRd7WR7T6dBpwGnAYaoYFmachXjbxJ4kt/VCRejKiR4lZA3UDJRMGK0AHBq8cP1cuNxWDIi4vTfeSoIUonqc+cqUXdsKmssofy2DqmCGmUOhrWpLTa+1oKIAvcKyiB4bW+8XopJXoIPEY2tElTLsq8bijOr0ss/Frqvnhcy9yH04DTgNNAYzSQZmsaI6DQbeIzP5SqSSMkVl4kJeu3ldIulVKCo7hzpSQRDggsq/aweuooSSz5GeAW0SWIYEnCNBrgi3raY6JeRb7pCDypCBzomwgcB6yzomy6VNhQjXUtfOXgK223ocTabqgscfZTTfROi8xmSHEw1QP1Bu0b5K0+fNaZwaT46CvHYevZZ+0X/5LE0u9UrvtwGnAacBpoqAaanSFfNeYuKW6HeTQw4kVlqeGVIF/esRXKgL4BwonOV334JAAz0Tj96Bm+cmjCYGmmxvjG6ELRPM/NQTeKybMuAX82DXscseqrVEDrnS9AXwD9QOaJOvCSHWRl8zzMB06+IoiL4eCVpK4GJ1YO06rFEv/iCWQcOQ04DTgNNFwDabal4c0L26J2wlOSWDxRStpiVqRFskiJeNW/DItKV4vAcZ6E/6LuhwkSnzcNPm01wRgMUXk6As/0gVu5NOBqxCGbyFrlx4mqcU4Z8NNTVqyijRRvuLspB19dVZ2HwM0QKU/bUgzvBdrejJk+cEXeHg8jYWy97d/W13z5AqJYPiisQp00pwGngV+EBpqVIa8a94yUdDTT5WmceVjEG0sYDFxUXix6KBIHKn/vIUnihadeCMvYDo3IDQytX6JF5BRmDShNf/AoopEFKa+VUbsc5zGp2PJYTdVfDlSerDVy05Rnmiv6tghcBeJD+Ww9ZXt51hPN64Hrq/38KdvEpU4DTgNOA3lrIM0W5d2qCRirRt2Gd5ZzFPkSFVukSlQbPKe9jZXTJw5/Nf7VLf5BErPGAw3TVw5ETlOMvPGBg1ldJTTgQNcWPdNPDj+1KAInCg8crEMsuR7VK9C8FvOOihFbfgTyLE9gdQD41tkf+4HMGP3ezLPMjh0DtQjc+NDNTcTWowuMAQf4rY+9btZYqfv6hSbQrhPpNOA08L+sgWZhyJMr50ti7liJlZrhFHno21c8UStMtPVFx0oQU15On3hMiuErXzH6LtSXoJ5WnuGISL1D3SeaNwhcfeCotSjdIn+D4E2Piv3BrmntChVVtul+BpVrKYy0N3WfPnASR55NmRZ92zqLwNlG5XOoAar7/GmsAQb/vCOnAacBp4E8NWDtS57sTcNWO+FhGK85nq/ZIHAicSJdgFyUm0PRL401C/DSUyNVYA3BKTXfjkGGVpXmkS4Wg4BNYyJotAn6wClHkbhF4ETXBmlrXLmH0mO1VRKrq8FkpLhU9D7LtIGs2mrw2+gTyNJxsnuVa/q2TwBE4WkI3O8bDTAMHhwevT3xBd9IfNIQnDhyGnAacBrITwNm5an8eJuEK7kYhmvWCDVmRKtJOwOIhs0j3m1o+5RoLEGIU8GKgpgQxEgSMFSNe1xKe+wNHzVeRhbhshJ2ko3X0BMQ9IFTjqJiZtSS6jBQBsOrdewMZ7XLAPTbSWnnLWWV4ElA6nirEMH0fUFIJMfnDSvN/41i/ymCeZJ/HebU/7RPGxRUO/kZKe5+kMQ69PTrm1tm1apV8v3330tRSYl0aNdOOnbsuMaGuHLlSpkxY4bMnvM9bpAJ2XTTTfVo1QrLDjtqtAbmzJkjS5Ys8dtvvfXWft5lmrcGABrDTMuaGXjNezdiVcCX0ZkxhQka8sCQ1DWCKt/b4hlcLUcrRpHwRWgSPo5W2xwppVvDAEJWsq4WRrTGM8lgtDIVtfPaYIS1ywxDb/n88Sjul2Rxa/jKy6R2yTxZ+cGd2p4vQkvgr6c3Bz0ag+6J4xOF3mH8/tgn+FCcfmPyGphqf5wlWx4l5X3+aEubRbpixQp54YUXZNLkybI48AfPwVXCiB5w4IFyUP/+UlZWVm+8n332mdx7//1++bFHHy0HHXSQf55PhkbmmWeekU8nTszKfsjBB8vRRx2VtY6FY997Tx5/4gm//qQTTpD999/fP2fmrrvukilTp/pl99x9t1RUVPjnzGReS1olTrbfbjvZfbfdZJdddsmsSjv/5ttv5c9/+UtaWdjJ0UceKYccckha9ahRo+Tfzz7rl112ySWy7bbb+ucNzVxx5ZWydNkyv9klF10k22+/vX8elnnsscfkvQ/CI646r7uu7L7HHrIHdNK5c+esYv777rvy1FP5vey/+MILZYcddlA53333nUz98ktZp21bHWtbpL9Eok1ZaxSfg5d7asQxBNoz77CDUv+yse8aj60x2eCxfmfyF2NWJ2fpFyE0sfqL4bCUiAGHqBjKiabJq4eeGWGKypHVFOW+kVfjTR4ctLg46JsnxbzVEUvbdZHi9ptSMgVIvA7uGJD6yo34eihcGfQGZdA7z3WMWhH4MF1pQd3UlyQx+91A5drNTpkyRW648UZ5Z+zYekacI1sJhD58+HC57U9/apKBfok/1pt+//tQI85OXxsxQv5w881CxL42iTe6h/75T/ndjTcIUW5LoHHjxqUZcY55zJgxBRn6z/Pn62/j2uuvl6mBm2QhhFdVVUmbNm2kBE+G02fMKITIFinD2sy1Mvi6KU/CVsJ6AbV6dhNGlz5yGDr4n1noR3loOXnNYXznZDT23xrjqvF4Wch/bI5FtvwIFDip9eEDDRklYvzj8GXjnH3GUK8o3xuI8rJPnNvZoMLYcvC3wprlRhb6qEMUC8IR6RLioVE2Kh8q9a6L9wJfHmXi2oxcrWClXitT8mkd0pqJj6+V7yWz02+nTZP7gKaDaC2Tx57T3fLkk0/a04Kk82EI7n/gAVmOJ4JcNHv2bCFCbA40d+5P8jcg/KC7ojmMK9sYRmcx2p9/8YX8/PPP2dgbXfZogb+bTp06qY3g0+JWW27Z6HG19IZrzUde9/VzEv9+nI94qUjeVWDS6lG2cvUpe0ac66/o20ZEscRnjZPk9sdiBmgp5OCIYRs4GnFF4EY+kbjphxDa9khjilMP7qtR11MPZrOS0SQl5djFrbWUddtLame/r8g6CWMu8NcTZdMm+wTD7iN6WwhW5eN5kNert08brOJyBXVf/EdKtj7eq107yTNPPy21dXY7PZGt8QdzxBFHSLdu3YSPtu8CpX/4EdaJ94io/ZhjjpHWrVvbotVKh738sqwC8rLUbp11ZNDAgepGICKbCFfLiy+9JFXV5r3IBLhx6EbZe6+9bJMmTffdd1/ZaccdZfHixTID+vgIurDjXbJ0qbz8yity6skn5xxDNvdJzkYFYODNb9r06VkljRo9Wk44vmG/vzvhLloH3xHphx9+kHvuvVfmL8D2jKBF0NHChQtzvlPJ101EV81+Ie4a7fAX8rF2EDkm2tTghZ7GfsNiqZElEgVSTRDF4gWWRnoA2SpCR6rI3EsV0YLPRo0okqVxpgyUr3r3PphdvvCEAYfZTItCMVDeR+D2iYCyOBBFw150i0HzRNvsyxxSzRmfcSnr2V/lMlZcUTkMHctxqgYaTXBurknHiwrKRqEpt3mv3IzdqwOPELUjrZkAdIsngbVFdGnMDrgHum24oVx++eXSs2dP9YVvvvnmctaZZ8qmG2+cNkQ+qheCaKjHjx+fJupS+IJ33XVXqaysVIPQt29fOSXDUL799ttpbZryZL0uXYQvBvfcc085+aST5LfXXJPW3bjATS6topmc0FgHaRPcoC19AN93TQ125WokbbDBBrLzzjuntV4AQ+6osBpYK4i8bvKjklg03SBwGj4SDB/JxmXTlil5aWi55YPBtog4vug7SS6dJ9K6PdZJweQhbtCs8JedeA1oSEFFFoF75bp4ltaYen5aBK1IvrYa/vcyRGsUS6utjpFVUzGBB08CgnBEqUAsu8fMhOT1FsiYclvPM22C5poGK1CXWDBdaif8U0p3+7VpuIY/M32aNJrZ6OKLL07zB7fv0CGNzdeDV5p5nsYcOPkeN5Hg08AWW2wuG2fcNMi+G16kDcWLWCI+0vwCuwRUqPeRa+zrr7++7LLTTvKxdwPikwJfbPbabLOgmHr5L+DKsE8VwcoO7dvXeykbrLd570/InuaV8n3Cxx9/7PPyRe1uuEk+/MgjWsZ3H++//7706dPH52lohqg8SO0R5ZRJ9gnYlt99zz02m5bugJevF+MlrKN0DaxxQ57Esq3Vk/+lHgz+QRAR002iyBjn1rVA5EoKK2e1GlbDBkMJBAv+JCJYGLWyYuRt0nbg32FgiWYRWZKEW4TkGXCiXTWcmhJ18wx/CipPJSk7+U2RSWnok5jxGYN7pWSDHSU5ZaiOg688Y/CVcxOMNOJASTax56bUHzfrlcWOD/V2fDWfPiUlmx0ssU5b2FZrLK3OQGNd11sva9/t8MfJo9BUV8ubcIq6du6SOsnIbQADag35ChggIslsETQZzZrktBtuNtaQs4Of583Laci/+uYb4ZFJRMiZ0TWZPI09fxfRIjUBHe8HNxEjVf7173/77yRGjRndIEN+73336SYwHBNdTEFDzie3sMiVxl6DawdAuqaVUDf5ccRl25dWxojbMWQbDMuyldOIZyNbXrH3xRJbZ1OAZRhsGNekxgiiDe8ULNP2SNUHQqMJIwyBLFdTTITsQZwUSjcFsQQeNYHyixBPXrnTmYT1aIOWnkvIN+VZhmj6MCO38rNfB0q99smaFVIzfkg2tiYv2xCPxkH6MQNdBeuaIp+Jvn+cOze0m2BdKaIYMo24XZveCsjmMsi8cWWGHtq2uVLrE7Z8lQV6X2DlFSr97zvv+KI64SnKhhvSdWWJL23pYsuX+J6APnceQSPeBjo499xz8xXj+BqggTWKyBOz35aqr4ZnReDqC8fAfQTuGVGLzH0gazNeahC48SfrdaM81qaLlO1ynjld+j1Q+XzYRLyMJJqmcbQyFIF71tJDwinrmULgFARPuBm3SsJZ9UosE9BGSjtsLCsTUCMmIDHwkdfBpXbZBY02kb9PvCb7yIG8DgX9Kh+ZlNXjt828J4LqKcOkpNcAKe7e1xe3JjKcbBOkUYhu4Mu9TGJUyVK82LN0QN++aXHUvMYgZZ4H64J5+sHXxWSj+Z5flS6KmTNnyiabbBJkU/fAwkWL/LLMelbQkARpFl7yBYmGfW7gRlGZET9ueXONfQFe7H0ScFew3aYZ47WygukWvXpJD7x7yCS6VvKhbIAnqt2kzz8XhgZaWgD9nXOe+buxZTZlKOKWqxEVwncrl112WehTW5LuyQBdDl43ISmgkBzZNWrIayY9pcbQjok/PGuvgmXMZ5bbr7l+eaqEPDyr3O8qijDUrrvE5i3QdVkAzYGy7aO6acdPonA/1WJTp64WbyS6jgt4NQoFRrhIIKcO0/fhL2+z+3my/P17jH+chhezTYMuFh0XjTjJpuZMjTiz1r6nde/xaD3a1Y5/fI0bckam9OzRw49qIMK688475ShMvGHddKAu/pFPCEzSKSstFb4ELRTtt38fGToU7yI8+jv8p8cPGlQvasXWM+2bMdGHZd27d2fi0zgY2/XgjqH/dzFuFM8//7zvTiBT5k3Mb5iRmQu3yddffy1d8NKTyPX5oUM1rt6y0e/cPg9jTMOVOenHymiKdEzGS86oPjgJi1E5+VzH2Xj5XYJJYUPgZ7duG74w502jKdxvUeP+pdStMUNe98W/NdzQR9ywWDSfBMI06H65Gjqt1O/AR7Rq4VDkIVz1cZMtUM5sSZdtEK53pLblR6ztRpJcPluSy+bAbwek7O+PCW6vLxUBQUxTbhQt1XHpDcciZ+3Qs8a19LuXYI30dlh+t4fULZihCDyBSUIlnKVE8uR69wOttzccW29S/aQivIxJgtdf892HUvzZU1K6wylpPE19cuYZZ+hkHPvS8UsYrdv//OfQbgdgxmbmH2z6VYkMffFFPTKFtMYMUc6uDNJB/QcA4X4iM2fN0mLGs9uXcUE+mw+bVcmQOBpLvlS09DJCG3lko31h4LNR5rW8A/cEj2zEUMnTTj01W1W9sky59RhyFIS9IORL1t9cFQA3kMP48M8xycsSUX/mMgt88Rqc0MRY82MwIzcXbYb+GN+9ELNRn8XN0dKQIUPk1ltusadpaebLzr9hRm0YHXfccTKgX7+w6l9kOW1U01PNEqwf8hQtt5JFnzzXAXh20UamWD6mNHopfp6BwK9l9pevLypRjrS872+UJfgRa9fD9MPHtyKulQKiDMvk3w04EArFwTIcJg6c7g9TnuZL5yxS7CTESUWttj4GiDyJnYTo9wc3Ubl3XUEUbvvk+PUa0JtN7XA0Nd2lXT/b1n7ypO4olMbbxCdEmieeeGJevTDU7IjDDqvHa6+7XkVmQcYjtq0+EygvHxcDoxoYDhlGZ5x+unTKY10YymFseDbK91roTrjyiivq3dSyyWRZvnLD2oeVZ5M7+u0xaeyn4GZzzdVXpx3XIoyyorzc53sPsfkNoX4wtpsFXEVE5P/+z3+yish0rWRl8grXjNGKGkHzq1sjOqmdOETiC2caNErECQNpYsiBguM4cK5reiNlzDfP7exGP2VYCOPCPX6/XG2vmfBTutl+UtJtj/paruwqybab4AUlmWFkdQzsBy84aYyZcmYnyvXJgL508nAs7I/7e7KME4s0ZT3PccBXzp2Zi0uwpO7Ge0tcx4d4cs72hAy2B6PJ85z5wKHx4pbPXlug3l6nkQFDjnDEmnEP17/GJi7ZZ++95QZMsWZoXTaiO4XrnJx3zjnZqle7jBEpv7/pJtk1ZP2SDWE0T4C7JVdoGl0D1/72t0JDnY2IoIn4csnJ1taWMXZ6ICYs3XDDDbJeSJSP5V0baS2iVD54/wO/a4YDbp9ljRa+LO7du7fPxyeh9z/80D/PJ8ObajnkWGLMOt9zOCqsBvBEA6vRhJRYMFVWvng6LJAX/me781LYQkOZ5XZUtlz5aAQz+Yk3aFRjss7gF6Wo6zYeQ0aCpwL57k34tblVG2YAxjlTkQbcE2hTIm+vL5VgB+jVYwSKnKg2onStRoRErKRSvSLLRt2OZrg/Ylj0rnBvUSPHS/x+zLnvSvGH4clHNVv6X4996uCY0VfrU56RIriR1gbxcfs7vHCc99NP+pxCxL4D/uDbZrxMDI5tGaZQz0abXMQ1M3L51/lSdfr06TILrhYukkR+GvKGEmOoKYOggsQ1OzKjZLLJzHYtjIjpgKiPhhhuriDJVRwtde3aVV0S9jxXyhmSwZezYfycYRt8+ZvZL91gYfqjXzwYecL5AbypBunHH3+URYEXzZkvKTNXVeTNlDe7IGX2E6zLzFPHmW6gTJ5f2nmTG/Kq0VdL3ZevGr3i7yUBP4LvcrBGDUaMBlKtAjltOfi5N6cxrCynadNCkyqrMZQVvQdJxYCbURJB8yZK8ucpxkBiESwacSJwPpYQ+aYMp/nDRin+4yDZlGVabcsNb6y0Epa3RFbN/VJqvnjZGzL2GC1FMd0FHrtvuFUmi60c7SXQD/vkrQKGW7vHdH8dr+Er3+5wqTjsr14jlzgNOA38kjXQpK6V+Hej04w4FU0jrqbXGkbPjtFem3L99I13it8r95EphDFPO4qjDJEjOanTVmBkCBo7xXtejCHSB27H5gnWEajd9io8c015yTqgfJyXb0CUjB2M8I+vO9VXbtk9OZpY2Uitj9y7QsPlXSfLqAMbNcNKjrl60nCp+wZPGI6cBpwGfvEaaFJDXjPxCUW8RL10EaibIJC3Zekp/dAp/lQeTnL1UXt1PFWfM1407nOhFLXrlvvLLMaLm469IB99mNtGwAfOfuv7wHVXIfrW6RPnIzh46E/hioi60iHyMdQn41j7nBEx2FGooveJaGbWi6HPnGvHqK/c+sB13OnXyHsC3TSp601dJ9jZvR5gUFBPvpqPhuS+ZsfhNOA08D+vgSYz5HXYET7+/SeqwJQrxdMnUSiyFokalwkKYKwUmSNVsugbaRpatfVgKq7oIOU7n+E1yJ3EOgExl69rYr7hCrFRKATpdjx0aBgKpuiUllbrUki+iFYWRJSsW8JBSHnHjaSkFMgfVUG3jTKizL8We31aYT4YuWOjd4Io3Gdhd56M2pkfS80nj/lVLuM04DTwy9RAkxjy5KqFUj0B64IDNeq64kg9GAlb6CFNL2XUhqLdDLSqXgu0SyFUmFeAYV+OJ7N8b7hUKhq2xkes05b6pMCQJ7WLCoWBmm3qjcn0ZRA40Td96npNSDW6xV4LkTwRO/b2TGBRrWTtSin/1Qk6VvIZVG7aQoDKCF6fLaNsiNSDH0ThrAseKX1ADniqPnxckisX/jJ/ve6qnQacBlQDTWLIaycMkcTiWaEq9hFpgINlWcstGqdRI9Hygoiei7tuLuW7nm0KGvLZsacUtd1AZSTxNtL2q2Zd+/E6MdYWknluDkXgMKDqW8cgLKKnkddriGO2J/LlFW2lBOMjui7GNegNIMsYWW994GkI3A7Bdu215RemXxrKdbGxBTOl9v1/ZJHsipwGnAZ+KRoouCFPzPscO9s87aNIRZAwfAZJwmrByPmx4Mzz0GLLk5GyLQ6PyZNjeCp2Ob3x39O6W0MmJ/RQFkwwEbX2YxG49YHzqcL4u7lWurkOIHC28+PLDZpXRM8yTN1PIMSxotcBys/wNm4+kcBmzZnXyy71gA58BI4C8uHD8KuOkEc5Eb59GmBKvpUfPiHxHz5rvC5cS6cBp4EWrQGEbhSWaic+CqOFl36wQ0pIiVTNMrG0WqbY+s1Ty8caXKyomAiWbB5vUBaLicZLN90DU9UbtnMJ2/q0TjeRDptJbMHX2LgZ8SVc0VA71Q+wmTToAzdtzaBgTr3r8q7PF4wMXnpq3AouqRzjrMFOPxRHo1scRyEuIAG3joYTBtsx73VvtGEqebe1qkhlUnUCfVe//0+pPC77Gs6G033+0jUw8q23QlXQGouT7YWNMRy1TA0U1JDHZ4yS6qkjYOCIFD2FEDUyS9gJUqRpMnpuKo3rQQvUYoHXa5/i10ZazqqyXU427Vfns8u2klzwjXGxJLGgVrIOdtLElRPt0nVh+seg2GnqorxxKIM3VDKA7HWK2YCibOOdpXrG+2p/OXU/HgPS1xsHbwUkr51NbB/eOeuVzzDreHzDDh5Pu1KDcMTybQ+T4i0HqFT34TQQ1AAn7Zx6yqnBorT8+husLxM//TStzJ20HA0U1JDXfU0jniLmfXuUKjZINnDOrG2XyR8st/LKtuwnpVscnCGhEaeVnUW6wMXyE9wSxTCPmOzpI3DCfnToL6LlGVgaTlZpii798aqhtWdeSGKsCNHqddhJaIBUTR2p8vgEwvY+BfMotL4uilMfeEg960gcltVLzeSXpVUTGPI/YYGsZZieHUY9uveQM888I6w6Z/m1110n48Z9nJXvtNNPk9NOOSVrXT6Ff7njjsjNj/fdbz/pf+CB+Yhq0TyxYs5qCKeMuLBwRlfTLDVQMEOeXPiN1Hz1Bvy4HnTE5Vrft7lyWBwaH89tokgSefghgGKZgpTF4/POvUKtVHlgrdjlNNYWhGJde2M7tW+wEBX24oRsvqhUR4aHrM2gUeQjZYuBkeJSfYOOer4AVf812XkxdbWSLC6R0i6by8rJr2OGJ6+W14ebQZHdrJn9aQOT+P3qKBSBB+v9cWgh25nxUO3V6KN8v68wdX8LW1uQdDJWyXvzDdyIQqgCKxaedtqpwun1DSWuAf7MM8/IqlVVWZs++cSTjTbk3FT4jjvuzCrXFnIJ218C8X1OFJlfURSHq2vOGrAAcLXHWPvVqzBsXL/Eo5Q9N2jbs1e2OkZkypOAEeepB4RpCQ3Z1JPXaoejpXjTAvryytrA8G2HJW5hiBFXnoRGdFwcC0fA/u0Y/AwKdDyMVAH6hkUv0gJjzGnQieyLuFcodFJct1wqdz5WJcKBY9qi3iLzsC+B9ayz9TZFkSF/XB4P1o+pmfSSrS1YelyOpUursGbIWxH+16iBvPrqa6FGnO0mT54s8wObH0TJyqx7Hnt4RhHXGOEGGI6cBlq6BurZhsZeUHzhdIMOiVxhpOhbVv+yn8KAeXmtIw8Oaygtv03Jm8bvtS2BW6XgtD723izviKgRGFfcWEw8OccPa5128NpQRj5GvKDOXIOHxDFGIvJUdAt4YcwZtVLSZl29Hvah14ioF0Xv5Ne49ZTeNF4dfEaW0ZOWgZc64WHbkCcYBZSYh++hwHTooYdKq1YVkVJfedVbTyeSq37lS8OG1S8MlFBX3D+yMfTGyPCnCMobMKC/WQenMcJdG6eBZqSBghnyxKJZijQVZcLWkIi6lWxqznzE650iIbJNIeFUOWWYg2XFbTrDN35QsLowee4c1HY9ne2piFzHb8ZkOkABbDIsq9cfT0gGgfsp6hWNo4YvfPWa8EjL6JRinc2EchR6WlEfuEH2Kkyv1X4hTHlY1K4ctnuvjmUah66Vhjc+f4Z3VrikFEvU7t/3gEiBb40aHVmfrbIOK1H+979vZ6tKK3vllYbfJJYsWSKfBXYtShPonQzEcrWOnAb+FzRg7cZqX0vc2x2HCJUoigZKkadNdb0RdKPx1wZlKi/QqklTZT4PeSmPBhRHaa8+qz3OMAHJtt2AnBk7znHzA+PimD0EzjKDwE18OVG3RcyKwDlW24btONuTxpspXSw1q6Rsg+09mbwm0151RFSN61N07V2vLYcQDshH4CZ+nX2lH9QPy2p//i7sEler/Lhjj4lsvwhLqo6fMCGSJ7Pytddfj3SrWP5Jkyc12L3y8iuv6Bo3VkZmyh1ssu09msnnzp0GWoIGCmbIY606+kgz88ItAg2WK1oNFnj5IALNbKeoP0ubQhTFapfpDj+wmhBnbkRMs/nAWa4+cBhPzesAggjeGxGrPeJStnVL5viP8nzVyWtV5O3xpX0ZRrRpjftKsE71Eqy3nSAtruwQOCtcdkD//tK6DdaPiaBhw7JvmRbW5KWXot0qth0XHXv22efsaV7piNdGRPINGODCNCMV5CpblAaC9mG1Bl7csbuPEokgLWJUpEiDp4YnVe7XB8otqmRdmgxPXvW0DySxZNZqjTO08ZLvjeuEL2wx3nx94LoCIgyNGa9B4ETh6ksHQieyJ9WVtJa6pfO1mLwWzesTB87r+cCpMxxB/3dQL5ShfVo+T0fFnXuGXuLqVDAi5YAcYXqjRo3Kuwu6Vd5+++28+V9+9ZW8eSn7vfffj+QfeNzAyHpX6TTQkjTQ8HixkKsrat8NhoWRKDQwBkurm4L8KFJCatGkFtly2DpbbvlsGiwvwqzI2kkjpHyf84y8Qn0u+U5k/rdGmhpeY3w5cF1TBTWaopj7cnqMmtC4cowwzV7K4gAP/e8oSWB5W/Wbe+25cZBpR36QbWLOfAROHhLtdhq/KdYyZpUP4yted2OvpvAJfcovR6Dob7/5RneTydz9JdtIaPRXLF+erSpr2YTxn8qCBQvy2kGHshlJE0ZdsBPPnnvuHlYdWc7dcsaNGyfzMRZG03CX+HU7dpJOnTvJFr22wNZoO0S2b6rKpUuXy3PPPSszvpshrVu3kd9ec3VaV805jpxjHzv2XeGkpXnYFDqO6KuOHdeVTut2kM026xW6d2raBRb4ZApCbl986SWpqqoSbnOY7xMcfxPffjtNd36aOWumjqprl66ywUYbynbbbFNvZ6RCDbtghrx4w50lOf5fsFgcGqyO+Q8D5FkoPzVD98uJKEk2sYZRbwYQxpQJDGwc+RUf/UvKd8cEES4TWyBKzvkU4BchhEDSScR+czBmOPjUDIy1vS47XnOhHJjHYlJ+mhsYDTwcM5hoRDfKqmkfavSKon2+8cQen+oXBz8fi+iKJ5k4dpO3feuZNxRfbyz0xqb1XvuSTXfT06b44MQZhuzxRWIYvfjiS3LRRReGVfvlL0TcEHymjAzDCfPZEzRXBM0hBzdsMhm3hHvs8Sdl2MvDZGKO9wAbdttIDj/scDlz8GBsr7ZxxhXkd7rxpt2lGgYkjH6a+6NfxRvLdb+7Qd5EhA734iTxO8o05JxVHEW6i1UUA+qeGzoUe5leHMlVXlEhTz/1pBq/SEZUcsmAJ594QkaOfDOSlTo98ogj5IJzz5cuXTGJrwF0/wMPyu9/f1Noi4HHD5J7777brx82/GW5846/yldffeWX1dXFcxryRx4ZIg8PeURmTJvut8uWoXuSG5RfcfnlsttuhftbLZhrpXSrw6Wk8xbZxm7QYkYNgakPbgN1qZ+bQbh+lfdDrJ03TVaOKdyaIsmfp2K9lWm6mw/38bRRJ8YHzt7pDzdpamzeqOzNyVhU5aWrhW30yQSz6YrpG4frpXbOFESu0KTjKIYkNcJA+JSNg1+E/TK0H69e+WwePKyz9ao/rz2KpWT9raW099HMNhkxZC+KRrzxRlS1Xze6AW4Y22j48PzcK2Pe/q9tkjUdhD/efIj7SN70hz/Idjv0VmOQy4hT5pzZ38s/HnhAdsUf6VnnnCvTpk3Lp6tG8dDo7L3vfvIaQj+tEW+UoDwa0Q12+a8vj+TkZs2PDRmS04iPfe896T/gIF0yIJcRZ4fU6f333S+777Wn/PORRyLHsDqV5194kZx7znlpRjyXvK+//lr67N9XODs5lxGnrBXLV8h/8fs84sij5BDc8N8dOzZXF3nVW9uRF3MupjJMD1fECGPGVPNMadxo9DSyA+c2ZRkPj9+m6t2A4eZ09jjC9xg9EkdECQ/KWjH2GczGnJFrOPnV/zBex5BI1AJJI+Yb49EoFKQaqaJjg7UkWsfBVA9CaB2/l/LcXgfbwtzGcHuIF5fJis8Qz4xmcdQTrlPpjCe3/FZXVk9Wb5Rv8z6PLQv0RT6Ou2yHhiHN/BSUznXsMdHRKx/D7RA1nZ/S3oIR5wbKDSXKpnslihg58/O8eaEsdPvstOOOofW2YvToMTDGu8sD9z8gyyOWJ7D82dJXhg+XPffaW4gKG0L6nedoQGNIo5Ove4p75UZRVJ8TJkyUwWeelfNm8fBDD0rfvvtHdSPX/+5GOfbY4+Szzz6L5MtWyWu97rrrZeDxx2erblSZfQLmTffFHBPIMjv4/PPP5bDDj5CpU6dmVuV1Pv6TT+Q4vKs57IgjZfp33+XVJoypoIa8tPcJUkxfOYk2i78d+/uBnSPR7WARZRBt+r8z+whIfhi/Im/mJ2PS9fEQ5fHlC2XFWwVA5TDisSU/6LiKsFUbDatF5OrPZg0MpI4XWZumLgoXx3HSKHsXwygXFsbgG2eDumWL8ZKThgWGHefFWH/FInAUKqlcqyeWBPK2T9UbRZNsas70s7TTJlK+26mBkqbJckp7x3U7Rgp/9bXXIuvpfmksvfDii5FNX3pxWGT9IYfkvtn99a675cSTTop0IUV2klHJR/tzz78go7Txp7xRXnTxJY0X0ICW06dPl+NPPFFWwb0URQ8++A856KDoOR6nnH66PPzwQ1Fi8qp757/vyMkRC4DlJSTA9BJ84bzpNoTobjvx5FMK8huhP75j+/YN6b4eb0ENeaxyXV0HJQxF1kOVHro05WozYTdhpYDYORsygQgSkzKPnXa0jPm4LHv/P1Iz46N6F5R3AffX/GGCItkEloFNwg/GvjV2HE8ARN8WgWuKvnUXIG98wfhyHT8RMnlghJMw1gmscBjHHqGLP3oehpdPEsb6+jpQfjKnULfmWc4yr97n9/h0RifyROA06La+Yp8zMKmpYf7DvHWVwTig34CMkvTTV0eMSC/IOCMiD6PuPXuEVWl5LvfK6DGjI9ufeMIJkfWPP/mk/On22yN5GlM5DMbiDKDaQtDvbrhR5uLFYFPTz3jxeCwQ4xK4mKLo3vvulaOOPDKKRW646feR6/VENs5SySUh6M5YXeLLzKt+c3WDxdx6220y76efGtwuW4OLLrpA2jcnQ85Blu1yhpR128WMF4aGSJtoUgl5m1qkac69M4/fInWfx2vH6fMsM0g/LivfvNfIa8znbNwEsEUaEXQRXCowiSo7TRSNpVIqTfOBaxv68s1aKxrZAkPPNVu49krNz7PhF6cAvPDELZMLLJL86+IJ6614r87W63VSd1Z/yNo7r//yCm3Le+yGSJ5zUbtmaODA4yI7ei/C7/fOO+/I4kWLQtsPBmrbfvvtQ+s/+ugjoe86G3GRLEbOhNHGm2wi2267bVi1RqP85qrfhNavbsVreFKha2F16fnnAQ6amIj6jzrmWI1Ciurqr3feKQOP5TpC4UT/+oP/+Ec4g1fTDsZsu+2204ORRbmILxgbOgktU+bIN99qlJsvn6fK7j165Hx67bpeV7ny/67IHFaDz61daHDDqAZluw/2kaIiSxpE7zAIkqdEnZAC9A2IjXOcoMwicCJYAFlF4mY2I/3kHir20OqKz96UqgmNeExfBT/rDxPNGLDPZhJxxw32gWOsGkOul4axcuy8Bi68BXMbj1XI8omva7mPxjFuXiOvnWkwb/ThoXHWecjc8mUicH168HRWsd85UV9Hweu4AUHUHxpf6IwaPTprv0NfiHaNDEKIYy50F/ZHlMvtcsghh2Qdky28MA93BVd63K/PfnLe+efLHXfeIffce4+ce+55kutJwvZB18IXOXyquSJIGvNi07/x24FkpJl9DoI7JeqmyOa33XqrnHzySRmS6p9edfU19QsDJe07dJDrr79Ovv5yqrz15kg9Jn82Uf78lz/nDDf99WW/DkhqeDYqTDVM2udffBE50/jSSy6R72ZMlw/ff0+mfj5Fpnw+WR579FFhedf11ksTe00jngbSBHgnTWLIuR5KxXaH10ee6FQROiGo9YV7AyHaVmTq+cQtSrVonutvK1JFquS1X/Zmw14ksW3ye6x9XbsKhhjT7Wtr/HFaJGwGopwGDdMA64CI2nn3AerWu5CHxFHE9VR0jFi2lnKqZk/RlHki8SI6yElWlDlL9c17AOuMeK82lfh/iOBRPlRRYsXOR0vJdoemGNdQ7qAcMyOJPrPRm2++ma1Yy3bfY3fED3eUQYOiJ+swWiMbvflWuMuG/CceH+5W4QvJ2bNmZRPrl+2EsLEP3hsrz2IRrz/cdKOcevLJwhvPH/9wk3yIl49vYMmBfELKbrzxJl9moTMdsfTAVltvtVpiT4Lv99NPEAQQQbyGM888I4LDVD2Lp4dZM2eG8m2++ebyybiP5JKL64c1nn7qqQirfEO46UUYMWqkUJEfmX0wCqfbxhvLJptunFa1MGI1ToZ+XnfdtVhkrpXfZt1115WDDz5IyydNnKA3KMrltZ900ok+3+pkmsSQc0Dle8AfWFKu6NMAR4s2YcvUBw2LpUgcSBbneuDcou44yvRgGfNILVrX1GuzctrHsmp07sc2X0mLZ4v8OAlPA3H0WYXB1GGMCv3Vj82xaXQN+jOo2DwtGJ+15wPHBVkEbq+FCDmBjZwZaVOLMMOVU7ErEFE1nzhAiqhh7M0TCVLWeag7GMXj86F7X2/Kl3pqUURPucUV0qrPef6lrclMLmP71qjR9YbD2ZZRUSdHH3WUtuncubPssuuu9drbgg/e/0CWZES98JxRLWFExLzllpuHVctdd98VWscKjue1V4ZHTujgZKCXh70k++63b6Qsupe+/PLrSJ58KxmXfNHFF+lNhPHlU6d8LsNyvBCOkn3JpZfKqIh3GGx7zW+vkQsvyO93x7DBKHr4oYelbdu2oSwbbrihPPP006H1rHjw4Ycj6xtSudU2W2v46Me4uczGhB7eZC447/w0EcvxxBlGnGPB7zeKeIOi3Oee/U8UW4PqmsyQF6+3vVTudlo6AieKhoEiKarkOQ7GVlukauOqyaO74Bg7yBZGFtoblM62lBOTxaOHkD0/mgM0DoMag6GO1eKFpxI7MYfGfyOfSukDp7OE6Bs8sK42rlzH57fH+IqAxoG8V3wN/zumbvIaixAzzjJVtF4rr8SQj8C9c+rCfiHkUT4OyxLqg1S53xlStFHvYNEay+8CdBqFlPgyjm/jg/RCRHgXV1g85uiUr/XoHC/PMpe/fSVHjPnhhx4WHEpa/g3Evke90KM75aF/PJDWJurknw89JETGUTT0haFR1XnV0b1Fo3vD9dcXZEbpLbfelnNNm//7v8vl8ssuy2t8c+fOjQzNOwrr3EfdXG0nW2+1FcIa+9rTeum7OQxnvQYhBXQTvQ19Hn30UbIxEHMYdYFfO4oGDjpeLkPMfa6QwvUy3CxRMnPVWbuRi69R9WV7nS9FnTal3VT0bRE4UauiTUWlJqJDkbgib0anwJACcVp0bvzl9J8rSNbUyiLqrZ47XZa++PucY+Tkn+Q8ICH2iynzOjAORP30GCTLOVgPOWfzgfMGQPRtUw82YyegUrTDIofV2Nxh9lQjk7JgxFP+b7ZFH15/ti/tD8PQlPU6jhQCZ3nqXQLyqC9et7uUH1D/cTSnEgrIkGuG5EsZi2i9ETGDb09M9lhnnTb+6I47LmXU/cJAZljGzNARcGtE0QkRk4CGY6XEKDrt1NMikXhmWz5eX3pp9Hfz5qi3Mpv55/q78M+yZ3hzeXHo89IdL3DzoVxx5HPmzJG///3vkaLOv+ACufo3+b8MHjEi+jsZlOOleXAwB0eEjVZhdynGuq8OHYI19/niNh/afLPwJzvb/t9wv+2x+x5yOGLEOYmJyxA0JTWpIY9hJb5Wew5OG7+PNG2phzJT6NZWmJQYVQ8YMxO8n45KeQE8loyJfvyitNgc+P2IlBM1MIY4aHlhFDVlHkc9HzgMNxG49YGDKR1RsxWc4DGEGgqM+YqJbxgGDJPbuRUDdtsR10PgFOaR5eEw/LytDKTmXUJMKvc/U2KV0fHcgWZNkj0hx8SMNxEiZonrk0RN1DkmYxciGsO9scZFGL0Hn3TwjyNqkawttthCevbsGSZKPv74k9A6Vpx7TsPDBgefdnqkzKlTvgitz3zxmI3xjjv+gnVINstWlbXMf8eStTa/wi23yG3AgpI++hhPvxG0fMVynabPqfq5jggxWvXhuA9zsYTW033z6CP/DK3PrCDgiHL9Bfn5u+ckpl6b90IU0DGSa45FsG1D8gVbayWs0/JdB0vN5Nek+tsPYPFoogzihAUFysTMTaR0lRh7SvSKExgz4yv2zk2Rlifh06Yca3+Vn1KXzZeFj14kHc+4L/tQ5nwiyUXfQz6E11QB9dJlgnY8Z4dMzAdSomFzbmd++XWoMFUmZfuikgo8INRJLfy01Ut/1lsPgDhCDsFD9O0Rc7wu3nj4VKJkOmKJf84c69m3X21qUZGQ8s33krJ91mykiu0+mDJMkOtgcAp1NpqKt/tzMctyvS5d5Pmh4duucfchrqWRSTTuYyNCGYcNH6YvHOkaWbki3G956KHR0SoLsZZ6GDE8rFu3bmHVoeV82bXNttsgYiHdvRRswEWi1l9//WBRXnm6tHKF/OUlqIFMfMHZv1+/nJEkVuyCiJeC5OHM1ELRrJmzGi0qn5e2mcKvhIvp+BNOzCyOPOe7HR58ycl3TNle8EYKiKikTWlyqtjzbBgga7g8xAkjTrJRKcF6lnNGp6J0GHElaw8DckwF5YAXfEvGPi/JVUtNcfCT1hDhhqSiOrhUMIsTtwicGQTOfE4fuLGuKoPtDOFmgCiVJHzjUtRKlnz0Eibl0ydOIw6UbtnIzHHjsAo3o/bEBOptib2B+HyQZeW12v9cy7bW08MifM8cHGfNkV5/I/wxe+999017y68N8EFfJSMHwuhlz3UzPCRCxrYblOPJIWq5gMrWra2YBqfdNoq+AcyYMTOrzFyulcMOPTxru6jCXK6VqLa2ji/yrrjyKnuaM52/YH5OnkIx/Jxj6Yaofk7Fy8eGUp8+faSxcw4YaXPzzbfI7nvuJTNX4wYUHLO1K8GygudLt+ovrX51lMJuE3kC/zdQr83Tz81QQEaSKCCHUUYOPnJ8KioFMqVvGgf+4yBS9Q6vnPwJxITP+wduGpk0c6wkl+NHBeGJmpVITduG+MDNwGBNNcLFSykHa6mwrmruDIg110Q7z+Vu9Q8SPLY/m2b1gZsLM20QROM1Q5rylVNeq12ORbjhwZlXuNbOo3zPHNQbr78hn3z6qfw096fQMR4Xsn5LZWWl7LPPPqHtPvjgA+FU6TFYFyWMGIWQrx85m4y6WjwBNpLox46iOvxeG0N777VHY5oVpM0IzNp9LcemHbYj/obXFC1eGD7JLGoMnLTTbp11olhC66644nL1q5eVw63aCJoxfbr0Qxgv12xZXVojhpyDrNj3PCkqrVQETmRpZ2lmuwDjL7dQ3HAA5yLDI52M7y9VvvzTkVIzJ6CYqiUeGgd6rkPsOF0zuIn4ceAwoLl84DCrXqcYkz4RcGy4+SC8kn7weKxUlk16S6NTNEKl2GO3Tw849UfIa/eq/acQe04+L46ePBaB2+qi8jZSceCF9rRZpIwoiJoM8zH8pFHhYwyfi5oAdGzEFnOcGHPzLbfIfEwlD6MjsKhRLuIYwijK7RLWxpZHjYs89M1mo1w+8t69e2drFllWCB+57eAqvPBcEeHKsnydET+9pqiIkzUaQZtFvDvJRxwjXUbiafMkrM3TJiKMMkwWo6VOO32wApIwnnzK4RNYM1S83jZSvtcpsnykiSsF0FTzSFSuxNs3y5By3XH1gbMC9cqBcho29Z2z3LvdE52bU5tij4h//lo2uPEtUz7rfUlW4Y0x0X2V50clyvWMs3Vh6GhUhFcD+TzleGhUgfdNyvHqQFBWhkiVuqSs/H6KPi2Qk0vU8ifF62MrO06TN5KMXPrArS+evCDtXxsib8w9L5OuH1a16jNYijfcTlmb08dhmDF5zz33Zh0Sje3TTz+TtY6FB/TtG1rHCq62yMf5sEWbHnlkSGT74/OIjODMQs5GzUZccY8r9e2www7ZqiPLpuAdQRRFvYCNardOIxFklMxg3Wa9ekXO6uTmCVdfc43ce889wWb18pwPEEX0FZc3Es1myu2NpYYbQ3w/s7q01ZZbyt/+eqf8HuvJcN2Zl7EAF9F2vsSIoUeGDFktn/kaM+S8qMo+l2BK/Qip+3lG/WtM2Dsq/AogY8aMbWONZ94C5UGOVAsavZVffyxVmB5f0QN/fD9OBlKGicVMTkrRl42wigS+RP40kPqpGXNmjK/p0fjSMR7vhqHnYIuVtYKtLZJa7Q9x4zTikFkChE6hmaOzhlm7g2grl+fk9e5LWh3ktXwlXXtJRb9LTH0z++RCVGGGPNdQj8uxTgfb94WxfzVHiGC2fvRlbAjqDfJv0m3j0Be25Hvs8Sf0DzXYJleea8JwQ+ow2mTTTcKqcpbT5dRUxA2pOVHlgAP7RT7yP/fc8zJo4MDIDax79OweOUy+ZDxj8OBInqauLNSNhONkNMu1mCzFgzH0L2A5iicxmWl6HmvSc7/b1Xn5aa1nU+tL5ccq20urfU7XOHGuS8I4cbVgiOzg7EoeLKKxtTMfmbfncZbbAzHnZlZloMyrQ5XMe/I6kdkfgAdysYt9omYF5ABVowP6nW2q0Bnt/NQbE/sBo44DDVP9sgyWN4FwQ8pZ9jmjccwY9ZEYZdavzZR1euiFccypIlax3yAfm5gyMyZ7vZX7nyWxVu3XyPfU0E6ILImuGkoMMcxnC63GRmgccUR+LwUHHDQgcujPPfecfBOxGFe2xjf98Y/Ziv2yAw84wM83l8yOv/qVP9vwgfvvyzmsy3Ms9tTvgAMjZeRadyeycaEqCbyagDjZ58ILL9AlHSZ/NinnmjSzciwPkWuITXMVEb1WwlfequduMFZAxP66Kh5+hYVkLtM3bM/NjEow0NipA4PDRwtMiSf5fBBe0XU9WPOvFfnGqvGCE2XG924QsKJmtaRsSYtKomBzGCRMZ4laWyNHZTDcED5VdFa3qlZqf/oWTRAvjvj0Es9Pp1dDa++5R8x4tQOOVg/Tvynz+bTOjEWvxWtfscW+Ur7vmR5z80wOO+zQBg+sf/9+ebXhOhWNcSccP/D4vOQf5S0NEMZM99AZZ52loZRhPMFyzurLtVbJsVijpTkRb6rP/vs//pB4Y74wx5Z933//PabrX+u3yczQHUW3VRhxSQWGjjaEXsfEr3z88w2R2VhebkbBm1nYapxWLren42Sjc87JEojhMUVtn2jlRKVr3JBzMJV9zgIyBYoF0k3U0d3BdU9gD4mWdXanQeu6vgr4ONNT+WF4mSpK1QgXoG1F2ETy2EEINpC8RO6d9jwYfBBKlwoiVRSBK9q2CJgpZClSpkwDlf2IEvZD1O/xGGSMsXKtcYQc0vgu/uR17A5n2tKtwqgbNDBtkPLxIg2B4x5h0brPx/uGonK0y0T+lIFxtDqgcPG2UT+G1ak7IWJBqjC5fDTPl/ohfrkhtONOv8p7f0fGuefaFOGbr7/BFmb7yKOPPRY6DE5QOvu884Sz+qKIC2vls0tRlIxC17Vp0yZtZi3l3/i73+miUVF9PYpV/RiVFEaHRszIZJuzYQxpnPOhK668Uk4ffAYiPQ7K+6aaj9zGfSiu1QAAEKVJREFU8HDWKjejeOaZZ2TnXXeTu3PMimUfB0fsFVuxmr76tWLIy3c4Qlr/KoXgFMFabcIienM5NbXF9VJaTkXlBuNixW/8My8m1+9ztBTVLAXyBZ5muCHhL/57H0h4YpG3l8KI0oVCBE40rKk2MRN42JbKipWZCIeqRQskvmIxJ4piPRXO4CQzyIiDDO1Qi7TKngaROmoN4keqfaIgo75yrxMQbhj96K+drOUPbjTMUL98iSvC0R+bLw3EBgcNoSPzdKtYmX+6/TbEske/+GK8+TXX/Fa2772jbkbw2OOP64xEokoi011221WGZyxLYOUH05v/+IfgabPO333X33KO79JLLwvluQE3g7YRL2dramrUOBPdhkUIcdniHX+1kzz11NPaz7Rvv5V+/foXbOGx0MGHVPCJ4MqrrvJrl+F3cSvWqenZa3M59bTThJuT8IVwkLio2x8RYRVGnTpGr80T1s6Wr9GXnbZTpq0PulRWTH4bE3iWGbvqGdu4+pXJQTQME0jDiBR4lbYUZcYimjQV3WLLiW7bbr+7xFYtwnoqCDfkmiok37BCIOVSGD/VeLPa3AS0H68v5QEbRmJ4ubohNlTGSiey8IPhMMI07QkpLSWTseR+NyqcH15r7dP2w14YtcIejGybEMVbKqpohxeczSvc0I4tW8rd46OmngfbHJTDLx3kZX7//ffThagW5jnxY1ADDT99mtdj8SlOp85FP+FF1hPY/b0xdPbZZ0VunEGZ/m+5MR2EtMk1ISisT649z41E+HIzjGhYueDWddf+th4Ld765+jdXQbe/q1cXLCC65UFXTOfO2GmsvEL1MG3at7IKa6lkEnfnOQTuvCcef0z23muvzOq8z4OAK99GjNjJNNRsy71duZk0D04W4rT8nXfaWbjhySfjx0vU2udR8yXyGRct0Vqh0m47Stu9B6mt1AF49oz+bsa8xuB3Tot9tfX+aI3hNHts0iwSx4tsdOQ5UlS1VG11DKkh25hGnHm9OyBlO56nUrumipHL1h4iR7sk4rhJq76fDiNsVEe/OFdgtMScnkGsSfGZVm/Goj5wr5E/u9UKYYo2lQeeKcUbbBMsbdb5k07IzyfNizh+EL77BtKA/v3zasF1MDrlWH0wm6Cz4Qc/OmRyUjb+hpZxYaZbbr45d7M0NJCbPS+OAEDIxu8DiiyVt95yW87VHLngVtjSvOecfbYceOCBWSTXL+LuUXRjTZ48WaNmshlx24qhoVw7PWppZMsblobdwML4uURt1E0t2I7X8a9//UuXmYgy4mxz5hmDg00bnF9rhpwjbXvYb6W4UzdFxfSH62qHcCpz1qf6x1GmfnSUUeH+ARRtZoXSJ24O+qeLWq0jrbt1hxGErxpT9ZNxrDXOHzD4Q33grAOPkU1/vXdo3zT8qEMnMaynQuMar4VvfOIY8NXh1oGNKeDi4d+dylA54IdMFvrjZV778coo1qunD1zz6uBPtSneYAtp1f/XDf5C12YDrhsStU2bHdt64Ns1Yr1xy5eZ5lqky/LnWgLX8mVL/4FojXw2h8jWNqrsOLzczHdhJk4yKzQVcTPwCCrCu58wYljdbbfkvgFdeHH40+PDDz0o3bvjb7PAxPjtxty0/WE0UNc//jRXVtef7fftZU455eRGzVMIygn/9oJcTZRnOOI6fU71pfvIFIZO0azW0Cj6LH5Gd9whk4W2SLsdfRZebmLyD90zVctQCQOs6JvhhhCCgwicTTRVaQEfeL1+wAtRHAB940Tpy775TFvR/86YcfrIU2Mla+DM78cI1ppgvUoyH34r1HN8rQ88G9NhzRNAgK3ZZw8//LCcYzwEUSiNod133y3nH20JXF/H5TEJKKr/F7FW+ODBg/UmHcWXTx3Xirnrb3+T+7AlXL6UQMhsoSmORd2iiAAmihjZk2vDDC4QFvbSj7HvI98Y2agbeLZxFeN7vh83XU4YWx0iSGsIHT9wkIwZNQq7MOX/PihK/p5wXd2OjZxXl9aqIefg2x78f1LefUegXqBsolQPoWr8uCJbMMGwKWrFuUHMJjJFka/yJKRyQ8wSwxRZXT+FaJyo3EPCGj2iCNhD3gEETh79EROB88fsHYxyoSxG1NCgxmFda6rjsvzbCToWjl2RE/gNAocphhHmOClDEbj2aVC2joV1kKtHBgL3ETralm+zPzZTPoNdtDg6YdAJOcd8MqYzN5aOyLJKYlAWXzg2du0MK4dGgi8/Hx0yRHo2YKlY296mXIZ39Ki35MQTc+vEtmHaFIg8hmuKIgKTXHQ3bki51o/5K3hmhGztRmQ//OVhcgHiq8srol8sR42Fm2jzZru6Rpx9FBGJNZB69Oghb48eJbfi5SVnwTaWzjrrTL0ObqqyurTWDTkvoH2/c4F2DVGt5gAK1pg+rwI2UMlDtDYm3CuV9frT314LPwuQRzUjVmg0IYMpyCJw9YFrSQqJ66n3QQRuZ3FCABA31jPELM5iyFr82VhvbEUaM64/gQyEnerPXIci9AyetP4wPCJwkm1b2f98U9ACPxkzy9C/MOKMxqid7MPa2fJc7pWjM9Y1t+0akzJ+/f2x78qQIY/IXnm+UGO8+/77768v4YY+/5z0asQfuv7uGzPgiDZp75uy8OXT5wYbbIAXl1dnaZ0q4iYPF+fYxPqmG25AnP3Hcvrppwvj1/OljTbaSK688gr5+KMPC+b+Smr0W74jSOejIX7v3Xd0e7+B2Lgkas0h25ILbB1x1JF6g+eNoFCEl7aEiWuf5t05SJZhWn3SnyRkhqVRLByeZwx1FiRPrXHE8Dtss4d02Wd/vRkkls/TuHH1qCiU18b8AEGmvVybosy6T8hBVM6bCjC1mcIP9w83jViJN9Lz335BjS63b6soN3fy1Dj4iIaWvlxKAxGBg3R9caZmYMiY9kTvSt555T5YfOeM7OuWGMbm//ktohjCtrmiMdh2NR9L38KjLZ/YstHeeFRtqinsDCF79tlnsYXdF7Jg0ULhintEUzTWW2ACzU64gTVmTZZs1/FLKuNaNiOxKfdMRHcsWrBQFi5ehHdRddKufTvp0KGjrtl+KG6qjXmvsqb1yIk9H2Ki048//CBcxnfxIgZcJIQGfM899pCmmtHbbAx5DTZR/uG2o6SOC1zxb1T/UIFRvT9Y+4ebbjjJFpPNz78RAYHV8I9jw4ilc81357Vj+6BhpoFW0vp0I06Fm35N/8mSMrxA7agt5ox8ziyBC5bSsiIpLSGPEcVP9sPIGTterVEbnW6oDR/cLYrt2TBVX9S6o3S47hUpXm9Lbe4+nAacBpwG8tGA9Wjkw9ukPGU9d5G2exylvmUaUzMDkj5qc9gZkamUPDEg8UPViJMvuWKhGtJgFAplRfnA4ZRXY6q+cPWJwzpr/zC15W1V3nLschNftYLFek63Gp8c2D8Ns9piL5/mA/fkKI+XJ7MaezZCfyZv0tYMN3RGvEl/Z06408D/ogaajSGncjucfLuUIRzReJfTh8Z5m9gUk2weljX1Hbbb1ZRVr8CSstVwhxgEXi8OXLnQFvYz6AM3xXSjEF6zrZci3DCGCUDEyws/eE3ZtC0c2lxShY4RdY7AgPvkgWv/nDwQl+kD13qvndaBp3zDraXVQZcHm7q804DTgNNAXhpIt5Z5NWk6pqKKttKuz0kmnlzXUiHaNYeufOghWLNDUELWH4BogHiVovbkyvlAtxFx4BqFwnoPgXNdFEXgpo1BzUDLjJoBb7wV0DjSJdO/0d2KGKdOZE8grQfkMDLGRM6wnT239QZlWzTOvvy2lJGB1lsNwHoq5dE7yjSd5p1kpwGngZasgWZlyKnI9sdeJ6034eYJGUOzCBY1fNFcVFYp7XptpQg6tgq7AMGQpiJZiKpJ9X3gPuK2yJsInqiZvGwCiMydeLB6itTVJmTppPd0ByHEhJl68pCIvnGwHV9csq3F5lpGHjsM5j0y/ZgK85IVG0Zs3w/hhqdZFpc6DTgNOA00SAMZ1rJBbZuMucOhFwDAWt84TJ+6PYB6YTmNjxxT8Q87Wbdu09mb3I8T6DkVB04DHogDBxQO+sDVn24RsaJ8yiWChmXmeQX28EN+0RcT/XHwnMPQ/jXWHWYbBjyFrJlnmZFFOWygY9c+TN7yc0qq7a+yf/iMuCZTshPsNOA08D+jgWZpyFvve6q02ym4roYZplmkqkgqu24irdf39jtcuSjty8j0gfsInFYYtwL1nSPvI2MgcPVTw9gqQq40ca1VVdWyfPokla2zSH3UjWVstb3XrZYbhJ0VgXtV2h9RfAa16XeOlGzbN6PUnToNOA04DeSvgWZpyDn89a9+QSo6bwrUivVSFOUaBEtE2+UARLfEqzH/pwarJy6SGNdCUQSezQduolYMEoYMRdMGNev0XLRTZMw+0G+sFMvUomzhR+/4/Zr1XuA3R99x+Mrraj1/uOdvN6ibvnf6zJHwAG/a4fXLtVXs+iplPXaS1qfemf+35TidBpwGnAayaKDZGnKOddP7Psda34ge0YGbobbv1Vsq27UFskbpip8NilYTTLjLyTw0x4HoExjUTB+4j8BVLtkNbI4hjlvFLlwsVQvmoIK9mH4ZNcMcFxfSzStgt7UrJP7kHmR9pA+R1geu/nTyBYhj6HDT6ECJyzoNOA04DTROA83akPOStvzPImnd81eKbmmqO+8FlwvRcxXCDVdx8pAXhUJjDPcI3R40zD4aVv+0h8AJlYMI3DtXQ16EGT6lWAMZ/PPewwxTiEmTgwJU4TCyqoHK60zXZjzqL6ef3PrFyYf+iMApzDtY1mq3o6XrU5zx5chpwGnAaWD1NcD5ic2eNv7Tu7J46O1S89XbUlZRjvHCggKNE4HDQur4TRw4MTSNpkHGrEh6PnAaWCJ7ctuU9YbgmmmLHTrAs/SHOZjBWaWRMZTGPuyaL/5djxEsEFTLF5YQVoIKuyY5z7MSx1RcJm0OvkBan/DHrCyu0GnAacBpoDEaaDZT9PMZfGLedIkt/U5kDqJJZo73zCxNs/fCkmaatl19J15eTTdZyBdIPX8HDXwR/OKJtuuq/3zai0Mg1xpwY7qtbS6C3AQsNVOSLecuI8Uo40pqxdrWu2GADS2kuN360nrv46Wi72Ap6rqZtnUfTgNOA04DhdJAizLkaRddh+2fuAOQxpBjnRUlWvEM8os8Q55RradFxVL78yyJ//SNJMrhJ6eJ9hbaj+mC4zgn1EYAu/rMGciO//pBNK4rqJl68ul5qzZSglmqMdwguO66I6cBpwGngabSQMs15E2lESfXacBpwGmghWnA+A5a2KDdcJ0GnAacBpwGUhpwhjylC5dzGnAacBpokRpwhrxFfm1u0E4DTgNOAykNOEOe0oXLOQ04DTgNtEgNOEPeIr82N2inAacBp4GUBpwhT+nC5ZwGnAacBlqkBpwhb5Ffmxu004DTgNNASgPOkKd04XJOA04DTgMtUgPOkLfIr80N2mnAacBpIKUBZ8hTunA5pwGnAaeBFqkBZ8hb5NfmBu004DTgNJDSgDPkKV24nNOA04DTQIvUgDPkLfJrc4N2GnAacBpIacAZ8pQuXM5pwGnAaaBFasAZ8hb5tblBOw04DTgNpDTgDHlKFy7nNOA04DTQIjXgDHmL/NrcoJ0GnAacBlIacIY8pQuXcxpwGnAaaJEacIa8RX5tbtBOA04DTgMpDfw/6dZhTKQRl7YAAAAASUVORK5CYII=;" vertex="1" parent="5Xm6pE8ULsqPC4je_U9q-5">
          <mxGeometry x="-40" y="240" width="115.63" height="40" as="geometry" />
        </mxCell>
        <mxCell id="5Xm6pE8ULsqPC4je_U9q-6" value="AWS Cloud" style="points=[[0,0],[0.25,0],[0.5,0],[0.75,0],[1,0],[1,0.25],[1,0.5],[1,0.75],[1,1],[0.75,1],[0.5,1],[0.25,1],[0,1],[0,0.75],[0,0.5],[0,0.25]];outlineConnect=0;gradientColor=none;html=1;whiteSpace=wrap;fontSize=12;fontStyle=0;container=1;pointerEvents=0;collapsible=0;recursiveResize=0;shape=mxgraph.aws4.group;grIcon=mxgraph.aws4.group_aws_cloud_alt;strokeColor=#232F3E;fillColor=none;verticalAlign=top;align=left;spacingLeft=30;fontColor=#232F3E;dashed=0;strokeWidth=2;" vertex="1" parent="1">
          <mxGeometry x="440" y="80" width="420" height="400" as="geometry" />
        </mxCell>
        <mxCell id="5Xm6pE8ULsqPC4je_U9q-12" value="Lightsail containers" style="sketch=0;points=[[0,0,0],[0.25,0,0],[0.5,0,0],[0.75,0,0],[1,0,0],[0,1,0],[0.25,1,0],[0.5,1,0],[0.75,1,0],[1,1,0],[0,0.25,0],[0,0.5,0],[0,0.75,0],[1,0.25,0],[1,0.5,0],[1,0.75,0]];outlineConnect=0;fontColor=#232F3E;fillColor=#ED7100;strokeColor=#ffffff;dashed=0;verticalLabelPosition=bottom;verticalAlign=top;align=center;html=1;fontSize=12;fontStyle=0;aspect=fixed;shape=mxgraph.aws4.resourceIcon;resIcon=mxgraph.aws4.lightsail;" vertex="1" parent="5Xm6pE8ULsqPC4je_U9q-6">
          <mxGeometry x="100" y="150" width="78" height="78" as="geometry" />
        </mxCell>
        <mxCell id="5Xm6pE8ULsqPC4je_U9q-14" value="Lightsail database" style="sketch=0;points=[[0,0,0],[0.25,0,0],[0.5,0,0],[0.75,0,0],[1,0,0],[0,1,0],[0.25,1,0],[0.5,1,0],[0.75,1,0],[1,1,0],[0,0.25,0],[0,0.5,0],[0,0.75,0],[1,0.25,0],[1,0.5,0],[1,0.75,0]];outlineConnect=0;fontColor=#232F3E;fillColor=#ED7100;strokeColor=#ffffff;dashed=0;verticalLabelPosition=bottom;verticalAlign=top;align=center;html=1;fontSize=12;fontStyle=0;aspect=fixed;shape=mxgraph.aws4.resourceIcon;resIcon=mxgraph.aws4.rds;" vertex="1" parent="5Xm6pE8ULsqPC4je_U9q-6">
          <mxGeometry x="280" y="150" width="78" height="78" as="geometry" />
        </mxCell>
        <mxCell id="5Xm6pE8ULsqPC4je_U9q-15" value="Lightsail bucket" style="sketch=0;points=[[0,0,0],[0.25,0,0],[0.5,0,0],[0.75,0,0],[1,0,0],[0,1,0],[0.25,1,0],[0.5,1,0],[0.75,1,0],[1,1,0],[0,0.25,0],[0,0.5,0],[0,0.75,0],[1,0.25,0],[1,0.5,0],[1,0.75,0]];outlineConnect=0;fontColor=#232F3E;fillColor=#ED7100;strokeColor=#ffffff;dashed=0;verticalLabelPosition=bottom;verticalAlign=top;align=center;html=1;fontSize=12;fontStyle=0;aspect=fixed;shape=mxgraph.aws4.resourceIcon;resIcon=mxgraph.aws4.s3;" vertex="1" parent="5Xm6pE8ULsqPC4je_U9q-6">
          <mxGeometry x="280" y="290" width="78" height="78" as="geometry" />
        </mxCell>
        <mxCell id="5Xm6pE8ULsqPC4je_U9q-16" value="Lightsail Instance" style="sketch=0;points=[[0,0,0],[0.25,0,0],[0.5,0,0],[0.75,0,0],[1,0,0],[0,1,0],[0.25,1,0],[0.5,1,0],[0.75,1,0],[1,1,0],[0,0.25,0],[0,0.5,0],[0,0.75,0],[1,0.25,0],[1,0.5,0],[1,0.75,0]];outlineConnect=0;fontColor=#232F3E;fillColor=#ED7100;strokeColor=#ffffff;dashed=0;verticalLabelPosition=bottom;verticalAlign=top;align=center;html=1;fontSize=12;fontStyle=0;aspect=fixed;shape=mxgraph.aws4.resourceIcon;resIcon=mxgraph.aws4.lightsail;" vertex="1" parent="5Xm6pE8ULsqPC4je_U9q-6">
          <mxGeometry x="280" y="10" width="78" height="78" as="geometry" />
        </mxCell>
        <mxCell id="5Xm6pE8ULsqPC4je_U9q-17" value="" style="sketch=0;points=[[0,0,0],[0.25,0,0],[0.5,0,0],[0.75,0,0],[1,0,0],[0,1,0],[0.25,1,0],[0.5,1,0],[0.75,1,0],[1,1,0],[0,0.25,0],[0,0.5,0],[0,0.75,0],[1,0.25,0],[1,0.5,0],[1,0.75,0]];outlineConnect=0;fontColor=#232F3E;fillColor=#ED7100;strokeColor=#ffffff;dashed=0;verticalLabelPosition=bottom;verticalAlign=top;align=center;html=1;fontSize=12;fontStyle=0;aspect=fixed;shape=mxgraph.aws4.resourceIcon;resIcon=mxgraph.aws4.ecs;" vertex="1" parent="5Xm6pE8ULsqPC4je_U9q-6">
          <mxGeometry x="178" y="198" width="30" height="30" as="geometry" />
        </mxCell>
        <mxCell id="5Xm6pE8ULsqPC4je_U9q-18" value="" style="sketch=0;points=[[0,0,0],[0.25,0,0],[0.5,0,0],[0.75,0,0],[1,0,0],[0,1,0],[0.25,1,0],[0.5,1,0],[0.75,1,0],[1,1,0],[0,0.25,0],[0,0.5,0],[0,0.75,0],[1,0.25,0],[1,0.5,0],[1,0.75,0]];outlineConnect=0;fontColor=#232F3E;fillColor=#ED7100;strokeColor=#ffffff;dashed=0;verticalLabelPosition=bottom;verticalAlign=top;align=center;html=1;fontSize=12;fontStyle=0;aspect=fixed;shape=mxgraph.aws4.resourceIcon;resIcon=mxgraph.aws4.ec2;" vertex="1" parent="5Xm6pE8ULsqPC4je_U9q-6">
          <mxGeometry x="358" y="58" width="30" height="30" as="geometry" />
        </mxCell>
        <mxCell id="5Xm6pE8ULsqPC4je_U9q-23" value="" style="shape=flexArrow;endArrow=classic;html=1;rounded=0;fontSize=12;startSize=8;endSize=8;curved=1;fillColor=#f0a30a;strokeColor=none;" edge="1" parent="5Xm6pE8ULsqPC4je_U9q-6">
          <mxGeometry width="50" height="50" relative="1" as="geometry">
            <mxPoint x="54" y="188.5" as="sourcePoint" />
            <mxPoint x="94" y="188.5" as="targetPoint" />
          </mxGeometry>
        </mxCell>
        <mxCell id="5Xm6pE8ULsqPC4je_U9q-24" value="" style="shape=flexArrow;endArrow=classic;html=1;rounded=0;fontSize=12;startSize=8;endSize=8;curved=1;fillColor=#f0a30a;strokeColor=none;" edge="1" parent="5Xm6pE8ULsqPC4je_U9q-6">
          <mxGeometry width="50" height="50" relative="1" as="geometry">
            <mxPoint x="220" y="188.5" as="sourcePoint" />
            <mxPoint x="260" y="188.5" as="targetPoint" />
          </mxGeometry>
        </mxCell>
        <mxCell id="5Xm6pE8ULsqPC4je_U9q-25" value="" style="shape=flexArrow;endArrow=classic;html=1;rounded=0;fontSize=12;startSize=8;endSize=8;curved=1;fillColor=#f0a30a;strokeColor=none;" edge="1" parent="5Xm6pE8ULsqPC4je_U9q-6">
          <mxGeometry width="50" height="50" relative="1" as="geometry">
            <mxPoint x="220" y="48.5" as="sourcePoint" />
            <mxPoint x="260" y="48.5" as="targetPoint" />
          </mxGeometry>
        </mxCell>
        <mxCell id="5Xm6pE8ULsqPC4je_U9q-26" value="" style="shape=flexArrow;endArrow=classic;html=1;rounded=0;fontSize=12;startSize=8;endSize=8;curved=1;fillColor=#f0a30a;strokeColor=none;" edge="1" parent="5Xm6pE8ULsqPC4je_U9q-6">
          <mxGeometry width="50" height="50" relative="1" as="geometry">
            <mxPoint x="220" y="328.5" as="sourcePoint" />
            <mxPoint x="260" y="328.5" as="targetPoint" />
          </mxGeometry>
        </mxCell>
        <mxCell id="5Xm6pE8ULsqPC4je_U9q-13" value="Lightsail LB" style="sketch=0;points=[[0,0,0],[0.25,0,0],[0.5,0,0],[0.75,0,0],[1,0,0],[0,1,0],[0.25,1,0],[0.5,1,0],[0.75,1,0],[1,1,0],[0,0.25,0],[0,0.5,0],[0,0.75,0],[1,0.25,0],[1,0.5,0],[1,0.75,0]];outlineConnect=0;fontColor=#232F3E;fillColor=#ED7100;strokeColor=#ffffff;dashed=0;verticalLabelPosition=bottom;verticalAlign=top;align=center;html=1;fontSize=12;fontStyle=0;aspect=fixed;shape=mxgraph.aws4.resourceIcon;resIcon=mxgraph.aws4.elastic_load_balancing;" vertex="1" parent="5Xm6pE8ULsqPC4je_U9q-6">
          <mxGeometry x="-30" y="150" width="78" height="78" as="geometry" />
        </mxCell>
        <mxCell id="5Xm6pE8ULsqPC4je_U9q-40" value="" style="shape=flexArrow;endArrow=classic;html=1;rounded=0;fontSize=12;startSize=8;endSize=8;curved=1;fillColor=#f0a30a;strokeColor=none;" edge="1" parent="5Xm6pE8ULsqPC4je_U9q-6">
          <mxGeometry width="50" height="50" relative="1" as="geometry">
            <mxPoint x="370" y="188.5" as="sourcePoint" />
            <mxPoint x="410" y="188.5" as="targetPoint" />
          </mxGeometry>
        </mxCell>
        <mxCell id="5Xm6pE8ULsqPC4je_U9q-9" value="Web" style="shape=image;verticalLabelPosition=bottom;labelBackgroundColor=default;verticalAlign=top;aspect=fixed;imageAspect=0;image=data:image/png,iVBORw0KGgoAAAANSUhEUgAAAXIAAACACAYAAAAWCeKvAAAEDmlDQ1BrQ0dDb2xvclNwYWNlR2VuZXJpY1JHQgAAOI2NVV1oHFUUPpu5syskzoPUpqaSDv41lLRsUtGE2uj+ZbNt3CyTbLRBkMns3Z1pJjPj/KRpKT4UQRDBqOCT4P9bwSchaqvtiy2itFCiBIMo+ND6R6HSFwnruTOzu5O4a73L3PnmnO9+595z7t4LkLgsW5beJQIsGq4t5dPis8fmxMQ6dMF90A190C0rjpUqlSYBG+PCv9rt7yDG3tf2t/f/Z+uuUEcBiN2F2Kw4yiLiZQD+FcWyXYAEQfvICddi+AnEO2ycIOISw7UAVxieD/Cyz5mRMohfRSwoqoz+xNuIB+cj9loEB3Pw2448NaitKSLLRck2q5pOI9O9g/t/tkXda8Tbg0+PszB9FN8DuPaXKnKW4YcQn1Xk3HSIry5ps8UQ/2W5aQnxIwBdu7yFcgrxPsRjVXu8HOh0qao30cArp9SZZxDfg3h1wTzKxu5E/LUxX5wKdX5SnAzmDx4A4OIqLbB69yMesE1pKojLjVdoNsfyiPi45hZmAn3uLWdpOtfQOaVmikEs7ovj8hFWpz7EV6mel0L9Xy23FMYlPYZenAx0yDB1/PX6dledmQjikjkXCxqMJS9WtfFCyH9XtSekEF+2dH+P4tzITduTygGfv58a5VCTH5PtXD7EFZiNyUDBhHnsFTBgE0SQIA9pfFtgo6cKGuhooeilaKH41eDs38Ip+f4At1Rq/sjr6NEwQqb/I/DQqsLvaFUjvAx+eWirddAJZnAj1DFJL0mSg/gcIpPkMBkhoyCSJ8lTZIxk0TpKDjXHliJzZPO50dR5ASNSnzeLvIvod0HG/mdkmOC0z8VKnzcQ2M/Yz2vKldduXjp9bleLu0ZWn7vWc+l0JGcaai10yNrUnXLP/8Jf59ewX+c3Wgz+B34Df+vbVrc16zTMVgp9um9bxEfzPU5kPqUtVWxhs6OiWTVW+gIfywB9uXi7CGcGW/zk98k/kmvJ95IfJn/j3uQ+4c5zn3Kfcd+AyF3gLnJfcl9xH3OfR2rUee80a+6vo7EK5mmXUdyfQlrYLTwoZIU9wsPCZEtP6BWGhAlhL3p2N6sTjRdduwbHsG9kq32sgBepc+xurLPW4T9URpYGJ3ym4+8zA05u44QjST8ZIoVtu3qE7fWmdn5LPdqvgcZz8Ww8BWJ8X3w0PhQ/wnCDGd+LvlHs8dRy6bLLDuKMaZ20tZrqisPJ5ONiCq8yKhYM5cCgKOu66Lsc0aYOtZdo5QCwezI4wm9J/v0X23mlZXOfBjj8Jzv3WrY5D+CsA9D7aMs2gGfjve8ArD6mePZSeCfEYt8CONWDw8FXTxrPqx/r9Vt4biXeANh8vV7/+/16ffMD1N8AuKD/A/8leAvFY9bLAAAAbGVYSWZNTQAqAAAACAAEARoABQAAAAEAAAA+ARsABQAAAAEAAABGASgAAwAAAAEAAgAAh2kABAAAAAEAAABOAAAAAAAAAJAAAAABAAAAkAAAAAEAAqACAAQAAAABAAABcqADAAQAAAABAAAAgAAAAADH8s7MAAAACXBIWXMAABYlAAAWJQFJUiTwAABAAElEQVR4Ae1dCYAUxdV+szcLyCXghQqI94HxvhEFvG/wVrxvjb8ajRo1iVcSTTReUSPeJlFRERVFAaN4oQiCiBcgIIrIfe41M//3verq6Zmd7pldZmE31oOeqq569ar6zezrr1+/qoolQeLIacBpwGnAaaDFaqCoxY7cDdxpwGnAacBpQDXgDLn7ITgNOA04DbRwDThD3sK/QDd8pwGnAacBZ8jdb8BpwGnAaaCFa8AZ8hb+BbrhOw04DTgNOEPufgNOA04DTgMtXAPOkLfwL9AN32nAacBpwBly9xtwGnAacBpo4RpwhryFf4Fu+E4DTgNOA86Qu9+A04DTgNNAC9eAM+Qt/At0w3cacBpwGnCG3P0GnAacBpwGWrgGnCFv4V+gG77TgNOA04Az5O434DTgNOA00MI14Ax5C/8C3fCdBpwGnAacIXe/AacBpwGngRauAWfIW/gX6IbvNOA04DRQ0iJVULVApGahSLJWkvFapHXeZcSQBjc8yu88WVJp2i+bKyvHP4Q82uF/WetWIkXh9zorPVsqxeUi5e0hpJ0Uteshxd2PhMyWqW5PuS5xGnAaaKYaiLWkrd7qJj8hxRttJ7F4jUi8KmDAC6Ddik4qZOVHD0nd7PeQj0lRaUxKKksLIBzSytrCmB8uxRsPkFj7rQoi0wlxGnAacBqgBsLhZjPST/zH8bLk73vKipH3AIHDiAN0J8SgW245yl1H7c6jugVpxnk+9YnalRCalPLtTzagPpmQRG1S4rVxownUkZJeSt6GnCerlkrdV89IzZiLJT5jmLZ1H04DTgNOA4XQQLM35KteuUKWPjhQEgvnSmL5AknM+EjdHkXFMORwVcRiMRzI0r8B4rl6RgLn+dQX1cGQg4rLWkn51oNUINslazxDXmQExrxUGnOeoLylUjvuZolPeVj7cx9OA04DTgOrq4Fmbchrxz0qqz4eCgDu/YMtXTriLrjGawCIk5IoKvXReAqZW4SeTwqeRMIcQOA0sslkXEo3O1ASQNyUWQdUngAqt0i8MSnbJONGnuZxXjPpQUn+OHZ1vz/X3mnAacBpoPm6VmqnviLLR/xRYnjZGCsG6i4uwntH5IGEaya/DkAMHzaOGIy5QdwWmeeZ4sv3QDtS4yaJ1a2SGAw6+6rc9SKUmz7iVSjLQOA5zykdCJx9FBnx6cpGWdWYX0tywST3M3QacBpwGlgtDTRPRF6zXFaNvF0vLGmtLc48eyirPvmPJFYtRUkRUHmxpmk+cvJ6zOozt+coTBJ5E4UzxSEJom2kcaSsr14CY56UsvV7m/4oCEd8FaJjSJ5vPCxVxO6heZWHPJ8eKMOmzJMvhqP6w1vRd7WR7T6dBpwGnAYaoYFmachXjbxJ4kt/VCRejKiR4lZA3UDJRMGK0AHBq8cP1cuNxWDIi4vTfeSoIUonqc+cqUXdsKmssofy2DqmCGmUOhrWpLTa+1oKIAvcKyiB4bW+8XopJXoIPEY2tElTLsq8bijOr0ss/Frqvnhcy9yH04DTgNNAYzSQZmsaI6DQbeIzP5SqSSMkVl4kJeu3ldIulVKCo7hzpSQRDggsq/aweuooSSz5GeAW0SWIYEnCNBrgi3raY6JeRb7pCDypCBzomwgcB6yzomy6VNhQjXUtfOXgK223ocTabqgscfZTTfROi8xmSHEw1QP1Bu0b5K0+fNaZwaT46CvHYevZZ+0X/5LE0u9UrvtwGnAacBpoqAaanSFfNeYuKW6HeTQw4kVlqeGVIF/esRXKgL4BwonOV334JAAz0Tj96Bm+cmjCYGmmxvjG6ELRPM/NQTeKybMuAX82DXscseqrVEDrnS9AXwD9QOaJOvCSHWRl8zzMB06+IoiL4eCVpK4GJ1YO06rFEv/iCWQcOQ04DTgNNFwDabal4c0L26J2wlOSWDxRStpiVqRFskiJeNW/DItKV4vAcZ6E/6LuhwkSnzcNPm01wRgMUXk6As/0gVu5NOBqxCGbyFrlx4mqcU4Z8NNTVqyijRRvuLspB19dVZ2HwM0QKU/bUgzvBdrejJk+cEXeHg8jYWy97d/W13z5AqJYPiisQp00pwGngV+EBpqVIa8a94yUdDTT5WmceVjEG0sYDFxUXix6KBIHKn/vIUnihadeCMvYDo3IDQytX6JF5BRmDShNf/AoopEFKa+VUbsc5zGp2PJYTdVfDlSerDVy05Rnmiv6tghcBeJD+Ww9ZXt51hPN64Hrq/38KdvEpU4DTgNOA3lrIM0W5d2qCRirRt2Gd5ZzFPkSFVukSlQbPKe9jZXTJw5/Nf7VLf5BErPGAw3TVw5ETlOMvPGBg1ldJTTgQNcWPdNPDj+1KAInCg8crEMsuR7VK9C8FvOOihFbfgTyLE9gdQD41tkf+4HMGP3ezLPMjh0DtQjc+NDNTcTWowuMAQf4rY+9btZYqfv6hSbQrhPpNOA08L+sgWZhyJMr50ti7liJlZrhFHno21c8UStMtPVFx0oQU15On3hMiuErXzH6LtSXoJ5WnuGISL1D3SeaNwhcfeCotSjdIn+D4E2Piv3BrmntChVVtul+BpVrKYy0N3WfPnASR55NmRZ92zqLwNlG5XOoAar7/GmsAQb/vCOnAacBp4E8NWDtS57sTcNWO+FhGK85nq/ZIHAicSJdgFyUm0PRL401C/DSUyNVYA3BKTXfjkGGVpXmkS4Wg4BNYyJotAn6wClHkbhF4ETXBmlrXLmH0mO1VRKrq8FkpLhU9D7LtIGs2mrw2+gTyNJxsnuVa/q2TwBE4WkI3O8bDTAMHhwevT3xBd9IfNIQnDhyGnAacBrITwNm5an8eJuEK7kYhmvWCDVmRKtJOwOIhs0j3m1o+5RoLEGIU8GKgpgQxEgSMFSNe1xKe+wNHzVeRhbhshJ2ko3X0BMQ9IFTjqJiZtSS6jBQBsOrdewMZ7XLAPTbSWnnLWWV4ElA6nirEMH0fUFIJMfnDSvN/41i/ymCeZJ/HebU/7RPGxRUO/kZKe5+kMQ69PTrm1tm1apV8v3330tRSYl0aNdOOnbsuMaGuHLlSpkxY4bMnvM9bpAJ2XTTTfVo1QrLDjtqtAbmzJkjS5Ys8dtvvfXWft5lmrcGABrDTMuaGXjNezdiVcCX0ZkxhQka8sCQ1DWCKt/b4hlcLUcrRpHwRWgSPo5W2xwppVvDAEJWsq4WRrTGM8lgtDIVtfPaYIS1ywxDb/n88Sjul2Rxa/jKy6R2yTxZ+cGd2p4vQkvgr6c3Bz0ag+6J4xOF3mH8/tgn+FCcfmPyGphqf5wlWx4l5X3+aEubRbpixQp54YUXZNLkybI48AfPwVXCiB5w4IFyUP/+UlZWVm+8n332mdx7//1++bFHHy0HHXSQf55PhkbmmWeekU8nTszKfsjBB8vRRx2VtY6FY997Tx5/4gm//qQTTpD999/fP2fmrrvukilTp/pl99x9t1RUVPjnzGReS1olTrbfbjvZfbfdZJdddsmsSjv/5ttv5c9/+UtaWdjJ0UceKYccckha9ahRo+Tfzz7rl112ySWy7bbb+ucNzVxx5ZWydNkyv9klF10k22+/vX8elnnsscfkvQ/CI646r7uu7L7HHrIHdNK5c+esYv777rvy1FP5vey/+MILZYcddlA53333nUz98ktZp21bHWtbpL9Eok1ZaxSfg5d7asQxBNoz77CDUv+yse8aj60x2eCxfmfyF2NWJ2fpFyE0sfqL4bCUiAGHqBjKiabJq4eeGWGKypHVFOW+kVfjTR4ctLg46JsnxbzVEUvbdZHi9ptSMgVIvA7uGJD6yo34eihcGfQGZdA7z3WMWhH4MF1pQd3UlyQx+91A5drNTpkyRW648UZ5Z+zYekacI1sJhD58+HC57U9/apKBfok/1pt+//tQI85OXxsxQv5w881CxL42iTe6h/75T/ndjTcIUW5LoHHjxqUZcY55zJgxBRn6z/Pn62/j2uuvl6mBm2QhhFdVVUmbNm2kBE+G02fMKITIFinD2sy1Mvi6KU/CVsJ6AbV6dhNGlz5yGDr4n1noR3loOXnNYXznZDT23xrjqvF4Wch/bI5FtvwIFDip9eEDDRklYvzj8GXjnH3GUK8o3xuI8rJPnNvZoMLYcvC3wprlRhb6qEMUC8IR6RLioVE2Kh8q9a6L9wJfHmXi2oxcrWClXitT8mkd0pqJj6+V7yWz02+nTZP7gKaDaC2Tx57T3fLkk0/a04Kk82EI7n/gAVmOJ4JcNHv2bCFCbA40d+5P8jcg/KC7ojmMK9sYRmcx2p9/8YX8/PPP2dgbXfZogb+bTp06qY3g0+JWW27Z6HG19IZrzUde9/VzEv9+nI94qUjeVWDS6lG2cvUpe0ac66/o20ZEscRnjZPk9sdiBmgp5OCIYRs4GnFF4EY+kbjphxDa9khjilMP7qtR11MPZrOS0SQl5djFrbWUddtLame/r8g6CWMu8NcTZdMm+wTD7iN6WwhW5eN5kNert08brOJyBXVf/EdKtj7eq107yTNPPy21dXY7PZGt8QdzxBFHSLdu3YSPtu8CpX/4EdaJ94io/ZhjjpHWrVvbotVKh738sqwC8rLUbp11ZNDAgepGICKbCFfLiy+9JFXV5r3IBLhx6EbZe6+9bJMmTffdd1/ZaccdZfHixTID+vgIurDjXbJ0qbz8yity6skn5xxDNvdJzkYFYODNb9r06VkljRo9Wk44vmG/vzvhLloH3xHphx9+kHvuvVfmL8D2jKBF0NHChQtzvlPJ101EV81+Ie4a7fAX8rF2EDkm2tTghZ7GfsNiqZElEgVSTRDF4gWWRnoA2SpCR6rI3EsV0YLPRo0okqVxpgyUr3r3PphdvvCEAYfZTItCMVDeR+D2iYCyOBBFw150i0HzRNvsyxxSzRmfcSnr2V/lMlZcUTkMHctxqgYaTXBurknHiwrKRqEpt3mv3IzdqwOPELUjrZkAdIsngbVFdGnMDrgHum24oVx++eXSs2dP9YVvvvnmctaZZ8qmG2+cNkQ+qheCaKjHjx+fJupS+IJ33XVXqaysVIPQt29fOSXDUL799ttpbZryZL0uXYQvBvfcc085+aST5LfXXJPW3bjATS6topmc0FgHaRPcoC19AN93TQ125WokbbDBBrLzzjuntV4AQ+6osBpYK4i8bvKjklg03SBwGj4SDB/JxmXTlil5aWi55YPBtog4vug7SS6dJ9K6PdZJweQhbtCs8JedeA1oSEFFFoF75bp4ltaYen5aBK1IvrYa/vcyRGsUS6utjpFVUzGBB08CgnBEqUAsu8fMhOT1FsiYclvPM22C5poGK1CXWDBdaif8U0p3+7VpuIY/M32aNJrZ6OKLL07zB7fv0CGNzdeDV5p5nsYcOPkeN5Hg08AWW2wuG2fcNMi+G16kDcWLWCI+0vwCuwRUqPeRa+zrr7++7LLTTvKxdwPikwJfbPbabLOgmHr5L+DKsE8VwcoO7dvXeykbrLd570/InuaV8n3Cxx9/7PPyRe1uuEk+/MgjWsZ3H++//7706dPH52lohqg8SO0R5ZRJ9gnYlt99zz02m5bugJevF+MlrKN0DaxxQ57Esq3Vk/+lHgz+QRAR002iyBjn1rVA5EoKK2e1GlbDBkMJBAv+JCJYGLWyYuRt0nbg32FgiWYRWZKEW4TkGXCiXTWcmhJ18wx/CipPJSk7+U2RSWnok5jxGYN7pWSDHSU5ZaiOg688Y/CVcxOMNOJASTax56bUHzfrlcWOD/V2fDWfPiUlmx0ssU5b2FZrLK3OQGNd11sva9/t8MfJo9BUV8ubcIq6du6SOsnIbQADag35ChggIslsETQZzZrktBtuNtaQs4Of583Laci/+uYb4ZFJRMiZ0TWZPI09fxfRIjUBHe8HNxEjVf7173/77yRGjRndIEN+73336SYwHBNdTEFDzie3sMiVxl6DawdAuqaVUDf5ccRl25dWxojbMWQbDMuyldOIZyNbXrH3xRJbZ1OAZRhsGNekxgiiDe8ULNP2SNUHQqMJIwyBLFdTTITsQZwUSjcFsQQeNYHyixBPXrnTmYT1aIOWnkvIN+VZhmj6MCO38rNfB0q99smaFVIzfkg2tiYv2xCPxkH6MQNdBeuaIp+Jvn+cOze0m2BdKaIYMo24XZveCsjmMsi8cWWGHtq2uVLrE7Z8lQV6X2DlFSr97zvv+KI64SnKhhvSdWWJL23pYsuX+J6APnceQSPeBjo499xz8xXj+BqggTWKyBOz35aqr4ZnReDqC8fAfQTuGVGLzH0gazNeahC48SfrdaM81qaLlO1ynjld+j1Q+XzYRLyMJJqmcbQyFIF71tJDwinrmULgFARPuBm3SsJZ9UosE9BGSjtsLCsTUCMmIDHwkdfBpXbZBY02kb9PvCb7yIG8DgX9Kh+ZlNXjt828J4LqKcOkpNcAKe7e1xe3JjKcbBOkUYhu4Mu9TGJUyVK82LN0QN++aXHUvMYgZZ4H64J5+sHXxWSj+Z5flS6KmTNnyiabbBJkU/fAwkWL/LLMelbQkARpFl7yBYmGfW7gRlGZET9ueXONfQFe7H0ScFew3aYZ47WygukWvXpJD7x7yCS6VvKhbIAnqt2kzz8XhgZaWgD9nXOe+buxZTZlKOKWqxEVwncrl112WehTW5LuyQBdDl43ISmgkBzZNWrIayY9pcbQjok/PGuvgmXMZ5bbr7l+eaqEPDyr3O8qijDUrrvE5i3QdVkAzYGy7aO6acdPonA/1WJTp64WbyS6jgt4NQoFRrhIIKcO0/fhL2+z+3my/P17jH+chhezTYMuFh0XjTjJpuZMjTiz1r6nde/xaD3a1Y5/fI0bckam9OzRw49qIMK688475ShMvGHddKAu/pFPCEzSKSstFb4ELRTtt38fGToU7yI8+jv8p8cPGlQvasXWM+2bMdGHZd27d2fi0zgY2/XgjqH/dzFuFM8//7zvTiBT5k3Mb5iRmQu3yddffy1d8NKTyPX5oUM1rt6y0e/cPg9jTMOVOenHymiKdEzGS86oPjgJi1E5+VzH2Xj5XYJJYUPgZ7duG74w502jKdxvUeP+pdStMUNe98W/NdzQR9ywWDSfBMI06H65Gjqt1O/AR7Rq4VDkIVz1cZMtUM5sSZdtEK53pLblR6ztRpJcPluSy+bAbwek7O+PCW6vLxUBQUxTbhQt1XHpDcciZ+3Qs8a19LuXYI30dlh+t4fULZihCDyBSUIlnKVE8uR69wOttzccW29S/aQivIxJgtdf892HUvzZU1K6wylpPE19cuYZZ+hkHPvS8UsYrdv//OfQbgdgxmbmH2z6VYkMffFFPTKFtMYMUc6uDNJB/QcA4X4iM2fN0mLGs9uXcUE+mw+bVcmQOBpLvlS09DJCG3lko31h4LNR5rW8A/cEj2zEUMnTTj01W1W9sky59RhyFIS9IORL1t9cFQA3kMP48M8xycsSUX/mMgt88Rqc0MRY82MwIzcXbYb+GN+9ELNRn8XN0dKQIUPk1ltusadpaebLzr9hRm0YHXfccTKgX7+w6l9kOW1U01PNEqwf8hQtt5JFnzzXAXh20UamWD6mNHopfp6BwK9l9pevLypRjrS872+UJfgRa9fD9MPHtyKulQKiDMvk3w04EArFwTIcJg6c7g9TnuZL5yxS7CTESUWttj4GiDyJnYTo9wc3Ubl3XUEUbvvk+PUa0JtN7XA0Nd2lXT/b1n7ypO4olMbbxCdEmieeeGJevTDU7IjDDqvHa6+7XkVmQcYjtq0+EygvHxcDoxoYDhlGZ5x+unTKY10YymFseDbK91roTrjyiivq3dSyyWRZvnLD2oeVZ5M7+u0xaeyn4GZzzdVXpx3XIoyyorzc53sPsfkNoX4wtpsFXEVE5P/+z3+yish0rWRl8grXjNGKGkHzq1sjOqmdOETiC2caNErECQNpYsiBguM4cK5reiNlzDfP7exGP2VYCOPCPX6/XG2vmfBTutl+UtJtj/paruwqybab4AUlmWFkdQzsBy84aYyZcmYnyvXJgL508nAs7I/7e7KME4s0ZT3PccBXzp2Zi0uwpO7Ge0tcx4d4cs72hAy2B6PJ85z5wKHx4pbPXlug3l6nkQFDjnDEmnEP17/GJi7ZZ++95QZMsWZoXTaiO4XrnJx3zjnZqle7jBEpv7/pJtk1ZP2SDWE0T4C7JVdoGl0D1/72t0JDnY2IoIn4csnJ1taWMXZ6ICYs3XDDDbJeSJSP5V0baS2iVD54/wO/a4YDbp9ljRa+LO7du7fPxyeh9z/80D/PJ8ObajnkWGLMOt9zOCqsBvBEA6vRhJRYMFVWvng6LJAX/me781LYQkOZ5XZUtlz5aAQz+Yk3aFRjss7gF6Wo6zYeQ0aCpwL57k34tblVG2YAxjlTkQbcE2hTIm+vL5VgB+jVYwSKnKg2onStRoRErKRSvSLLRt2OZrg/Ylj0rnBvUSPHS/x+zLnvSvGH4clHNVv6X4996uCY0VfrU56RIriR1gbxcfs7vHCc99NP+pxCxL4D/uDbZrxMDI5tGaZQz0abXMQ1M3L51/lSdfr06TILrhYukkR+GvKGEmOoKYOggsQ1OzKjZLLJzHYtjIjpgKiPhhhuriDJVRwtde3aVV0S9jxXyhmSwZezYfycYRt8+ZvZL91gYfqjXzwYecL5AbypBunHH3+URYEXzZkvKTNXVeTNlDe7IGX2E6zLzFPHmW6gTJ5f2nmTG/Kq0VdL3ZevGr3i7yUBP4LvcrBGDUaMBlKtAjltOfi5N6cxrCynadNCkyqrMZQVvQdJxYCbURJB8yZK8ucpxkBiESwacSJwPpYQ+aYMp/nDRin+4yDZlGVabcsNb6y0Epa3RFbN/VJqvnjZGzL2GC1FMd0FHrtvuFUmi60c7SXQD/vkrQKGW7vHdH8dr+Er3+5wqTjsr14jlzgNOA38kjXQpK6V+Hej04w4FU0jrqbXGkbPjtFem3L99I13it8r95EphDFPO4qjDJEjOanTVmBkCBo7xXtejCHSB27H5gnWEajd9io8c015yTqgfJyXb0CUjB2M8I+vO9VXbtk9OZpY2Uitj9y7QsPlXSfLqAMbNcNKjrl60nCp+wZPGI6cBpwGfvEaaFJDXjPxCUW8RL10EaibIJC3Zekp/dAp/lQeTnL1UXt1PFWfM1407nOhFLXrlvvLLMaLm469IB99mNtGwAfOfuv7wHVXIfrW6RPnIzh46E/hioi60iHyMdQn41j7nBEx2FGooveJaGbWi6HPnGvHqK/c+sB13OnXyHsC3TSp601dJ9jZvR5gUFBPvpqPhuS+ZsfhNOA08D+vgSYz5HXYET7+/SeqwJQrxdMnUSiyFokalwkKYKwUmSNVsugbaRpatfVgKq7oIOU7n+E1yJ3EOgExl69rYr7hCrFRKATpdjx0aBgKpuiUllbrUki+iFYWRJSsW8JBSHnHjaSkFMgfVUG3jTKizL8We31aYT4YuWOjd4Io3Gdhd56M2pkfS80nj/lVLuM04DTwy9RAkxjy5KqFUj0B64IDNeq64kg9GAlb6CFNL2XUhqLdDLSqXgu0SyFUmFeAYV+OJ7N8b7hUKhq2xkes05b6pMCQJ7WLCoWBmm3qjcn0ZRA40Td96npNSDW6xV4LkTwRO/b2TGBRrWTtSin/1Qk6VvIZVG7aQoDKCF6fLaNsiNSDH0ThrAseKX1ADniqPnxckisX/jJ/ve6qnQacBlQDTWLIaycMkcTiWaEq9hFpgINlWcstGqdRI9Hygoiei7tuLuW7nm0KGvLZsacUtd1AZSTxNtL2q2Zd+/E6MdYWknluDkXgMKDqW8cgLKKnkddriGO2J/LlFW2lBOMjui7GNegNIMsYWW994GkI3A7Bdu215RemXxrKdbGxBTOl9v1/ZJHsipwGnAZ+KRoouCFPzPscO9s87aNIRZAwfAZJwmrByPmx4Mzz0GLLk5GyLQ6PyZNjeCp2Ob3x39O6W0MmJ/RQFkwwEbX2YxG49YHzqcL4u7lWurkOIHC28+PLDZpXRM8yTN1PIMSxotcBys/wNm4+kcBmzZnXyy71gA58BI4C8uHD8KuOkEc5Eb59GmBKvpUfPiHxHz5rvC5cS6cBp4EWrQGEbhSWaic+CqOFl36wQ0pIiVTNMrG0WqbY+s1Ty8caXKyomAiWbB5vUBaLicZLN90DU9UbtnMJ2/q0TjeRDptJbMHX2LgZ8SVc0VA71Q+wmTToAzdtzaBgTr3r8q7PF4wMXnpq3AouqRzjrMFOPxRHo1scRyEuIAG3joYTBtsx73VvtGEqebe1qkhlUnUCfVe//0+pPC77Gs6G033+0jUw8q23QlXQGouT7YWNMRy1TA0U1JDHZ4yS6qkjYOCIFD2FEDUyS9gJUqRpMnpuKo3rQQvUYoHXa5/i10ZazqqyXU427Vfns8u2klzwjXGxJLGgVrIOdtLElRPt0nVh+seg2GnqorxxKIM3VDKA7HWK2YCibOOdpXrG+2p/OXU/HgPS1xsHbwUkr51NbB/eOeuVzzDreHzDDh5Pu1KDcMTybQ+T4i0HqFT34TQQ1AAn7Zx6yqnBorT8+husLxM//TStzJ20HA0U1JDXfU0jniLmfXuUKjZINnDOrG2XyR8st/LKtuwnpVscnCGhEaeVnUW6wMXyE9wSxTCPmOzpI3DCfnToL6LlGVgaTlZpii798aqhtWdeSGKsCNHqddhJaIBUTR2p8vgEwvY+BfMotL4uilMfeEg960gcltVLzeSXpVUTGPI/YYGsZZieHUY9uveQM888I6w6Z/m1110n48Z9nJXvtNNPk9NOOSVrXT6Ff7njjsjNj/fdbz/pf+CB+Yhq0TyxYs5qCKeMuLBwRlfTLDVQMEOeXPiN1Hz1Bvy4HnTE5Vrft7lyWBwaH89tokgSefghgGKZgpTF4/POvUKtVHlgrdjlNNYWhGJde2M7tW+wEBX24oRsvqhUR4aHrM2gUeQjZYuBkeJSfYOOer4AVf812XkxdbWSLC6R0i6by8rJr2OGJ6+W14ebQZHdrJn9aQOT+P3qKBSBB+v9cWgh25nxUO3V6KN8v68wdX8LW1uQdDJWyXvzDdyIQqgCKxaedtqpwun1DSWuAf7MM8/IqlVVWZs++cSTjTbk3FT4jjvuzCrXFnIJ218C8X1OFJlfURSHq2vOGrAAcLXHWPvVqzBsXL/Eo5Q9N2jbs1e2OkZkypOAEeepB4RpCQ3Z1JPXaoejpXjTAvryytrA8G2HJW5hiBFXnoRGdFwcC0fA/u0Y/AwKdDyMVAH6hkUv0gJjzGnQieyLuFcodFJct1wqdz5WJcKBY9qi3iLzsC+B9ayz9TZFkSF/XB4P1o+pmfSSrS1YelyOpUursGbIWxH+16iBvPrqa6FGnO0mT54s8wObH0TJyqx7Hnt4RhHXGOEGGI6cBlq6BurZhsZeUHzhdIMOiVxhpOhbVv+yn8KAeXmtIw8Oaygtv03Jm8bvtS2BW6XgtD723izviKgRGFfcWEw8OccPa5128NpQRj5GvKDOXIOHxDFGIvJUdAt4YcwZtVLSZl29Hvah14ioF0Xv5Ne49ZTeNF4dfEaW0ZOWgZc64WHbkCcYBZSYh++hwHTooYdKq1YVkVJfedVbTyeSq37lS8OG1S8MlFBX3D+yMfTGyPCnCMobMKC/WQenMcJdG6eBZqSBghnyxKJZijQVZcLWkIi6lWxqznzE650iIbJNIeFUOWWYg2XFbTrDN35QsLowee4c1HY9ne2piFzHb8ZkOkABbDIsq9cfT0gGgfsp6hWNo4YvfPWa8EjL6JRinc2EchR6WlEfuEH2Kkyv1X4hTHlY1K4ctnuvjmUah66Vhjc+f4Z3VrikFEvU7t/3gEiBb40aHVmfrbIOK1H+979vZ6tKK3vllYbfJJYsWSKfBXYtShPonQzEcrWOnAb+FzRg7cZqX0vc2x2HCJUoigZKkadNdb0RdKPx1wZlKi/QqklTZT4PeSmPBhRHaa8+qz3OMAHJtt2AnBk7znHzA+PimD0EzjKDwE18OVG3RcyKwDlW24btONuTxpspXSw1q6Rsg+09mbwm0151RFSN61N07V2vLYcQDshH4CZ+nX2lH9QPy2p//i7sEler/Lhjj4lsvwhLqo6fMCGSJ7Pytddfj3SrWP5Jkyc12L3y8iuv6Bo3VkZmyh1ssu09msnnzp0GWoIGCmbIY606+kgz88ItAg2WK1oNFnj5IALNbKeoP0ubQhTFapfpDj+wmhBnbkRMs/nAWa4+cBhPzesAggjeGxGrPeJStnVL5viP8nzVyWtV5O3xpX0ZRrRpjftKsE71Eqy3nSAtruwQOCtcdkD//tK6DdaPiaBhw7JvmRbW5KWXot0qth0XHXv22efsaV7piNdGRPINGODCNCMV5CpblAaC9mG1Bl7csbuPEokgLWJUpEiDp4YnVe7XB8otqmRdmgxPXvW0DySxZNZqjTO08ZLvjeuEL2wx3nx94LoCIgyNGa9B4ETh6ksHQieyJ9WVtJa6pfO1mLwWzesTB87r+cCpMxxB/3dQL5ShfVo+T0fFnXuGXuLqVDAi5YAcYXqjRo3Kuwu6Vd5+++28+V9+9ZW8eSn7vfffj+QfeNzAyHpX6TTQkjTQ8HixkKsrat8NhoWRKDQwBkurm4L8KFJCatGkFtly2DpbbvlsGiwvwqzI2kkjpHyf84y8Qn0u+U5k/rdGmhpeY3w5cF1TBTWaopj7cnqMmtC4cowwzV7K4gAP/e8oSWB5W/Wbe+25cZBpR36QbWLOfAROHhLtdhq/KdYyZpUP4yted2OvpvAJfcovR6Dob7/5RneTydz9JdtIaPRXLF+erSpr2YTxn8qCBQvy2kGHshlJE0ZdsBPPnnvuHlYdWc7dcsaNGyfzMRZG03CX+HU7dpJOnTvJFr22wNZoO0S2b6rKpUuXy3PPPSszvpshrVu3kd9ec3VaV805jpxjHzv2XeGkpXnYFDqO6KuOHdeVTut2kM026xW6d2raBRb4ZApCbl986SWpqqoSbnOY7xMcfxPffjtNd36aOWumjqprl66ywUYbynbbbFNvZ6RCDbtghrx4w50lOf5fsFgcGqyO+Q8D5FkoPzVD98uJKEk2sYZRbwYQxpQJDGwc+RUf/UvKd8cEES4TWyBKzvkU4BchhEDSScR+czBmOPjUDIy1vS47XnOhHJjHYlJ+mhsYDTwcM5hoRDfKqmkfavSKon2+8cQen+oXBz8fi+iKJ5k4dpO3feuZNxRfbyz0xqb1XvuSTXfT06b44MQZhuzxRWIYvfjiS3LRRReGVfvlL0TcEHymjAzDCfPZEzRXBM0hBzdsMhm3hHvs8Sdl2MvDZGKO9wAbdttIDj/scDlz8GBsr7ZxxhXkd7rxpt2lGgYkjH6a+6NfxRvLdb+7Qd5EhA734iTxO8o05JxVHEW6i1UUA+qeGzoUe5leHMlVXlEhTz/1pBq/SEZUcsmAJ594QkaOfDOSlTo98ogj5IJzz5cuXTGJrwF0/wMPyu9/f1Noi4HHD5J7777brx82/GW5846/yldffeWX1dXFcxryRx4ZIg8PeURmTJvut8uWoXuSG5RfcfnlsttuhftbLZhrpXSrw6Wk8xbZxm7QYkYNgakPbgN1qZ+bQbh+lfdDrJ03TVaOKdyaIsmfp2K9lWm6mw/38bRRJ8YHzt7pDzdpamzeqOzNyVhU5aWrhW30yQSz6YrpG4frpXbOFESu0KTjKIYkNcJA+JSNg1+E/TK0H69e+WwePKyz9ao/rz2KpWT9raW099HMNhkxZC+KRrzxRlS1Xze6AW4Y22j48PzcK2Pe/q9tkjUdhD/efIj7SN70hz/Idjv0VmOQy4hT5pzZ38s/HnhAdsUf6VnnnCvTpk3Lp6tG8dDo7L3vfvIaQj+tEW+UoDwa0Q12+a8vj+TkZs2PDRmS04iPfe896T/gIF0yIJcRZ4fU6f333S+777Wn/PORRyLHsDqV5194kZx7znlpRjyXvK+//lr67N9XODs5lxGnrBXLV8h/8fs84sij5BDc8N8dOzZXF3nVW9uRF3MupjJMD1fECGPGVPNMadxo9DSyA+c2ZRkPj9+m6t2A4eZ09jjC9xg9EkdECQ/KWjH2GczGnJFrOPnV/zBex5BI1AJJI+Yb49EoFKQaqaJjg7UkWsfBVA9CaB2/l/LcXgfbwtzGcHuIF5fJis8Qz4xmcdQTrlPpjCe3/FZXVk9Wb5Rv8z6PLQv0RT6Ou2yHhiHN/BSUznXsMdHRKx/D7RA1nZ/S3oIR5wbKDSXKpnslihg58/O8eaEsdPvstOOOofW2YvToMTDGu8sD9z8gyyOWJ7D82dJXhg+XPffaW4gKG0L6nedoQGNIo5Ove4p75UZRVJ8TJkyUwWeelfNm8fBDD0rfvvtHdSPX/+5GOfbY4+Szzz6L5MtWyWu97rrrZeDxx2erblSZfQLmTffFHBPIMjv4/PPP5bDDj5CpU6dmVuV1Pv6TT+Q4vKs57IgjZfp33+XVJoypoIa8tPcJUkxfOYk2i78d+/uBnSPR7WARZRBt+r8z+whIfhi/Im/mJ2PS9fEQ5fHlC2XFWwVA5TDisSU/6LiKsFUbDatF5OrPZg0MpI4XWZumLgoXx3HSKHsXwygXFsbgG2eDumWL8ZKThgWGHefFWH/FInAUKqlcqyeWBPK2T9UbRZNsas70s7TTJlK+26mBkqbJckp7x3U7Rgp/9bXXIuvpfmksvfDii5FNX3pxWGT9IYfkvtn99a675cSTTop0IUV2klHJR/tzz78go7Txp7xRXnTxJY0X0ICW06dPl+NPPFFWwb0URQ8++A856KDoOR6nnH66PPzwQ1Fi8qp757/vyMkRC4DlJSTA9BJ84bzpNoTobjvx5FMK8huhP75j+/YN6b4eb0ENeaxyXV0HJQxF1kOVHro05WozYTdhpYDYORsygQgSkzKPnXa0jPm4LHv/P1Iz46N6F5R3AffX/GGCItkEloFNwg/GvjV2HE8ARN8WgWuKvnUXIG98wfhyHT8RMnlghJMw1gmscBjHHqGLP3oehpdPEsb6+jpQfjKnULfmWc4yr97n9/h0RifyROA06La+Yp8zMKmpYf7DvHWVwTig34CMkvTTV0eMSC/IOCMiD6PuPXuEVWl5LvfK6DGjI9ufeMIJkfWPP/mk/On22yN5GlM5DMbiDKDaQtDvbrhR5uLFYFPTz3jxeCwQ4xK4mKLo3vvulaOOPDKKRW646feR6/VENs5SySUh6M5YXeLLzKt+c3WDxdx6220y76efGtwuW4OLLrpA2jcnQ85Blu1yhpR128WMF4aGSJtoUgl5m1qkac69M4/fInWfx2vH6fMsM0g/LivfvNfIa8znbNwEsEUaEXQRXCowiSo7TRSNpVIqTfOBaxv68s1aKxrZAkPPNVu49krNz7PhF6cAvPDELZMLLJL86+IJ6614r87W63VSd1Z/yNo7r//yCm3Le+yGSJ5zUbtmaODA4yI7ei/C7/fOO+/I4kWLQtsPBmrbfvvtQ+s/+ugjoe86G3GRLEbOhNHGm2wi2267bVi1RqP85qrfhNavbsVreFKha2F16fnnAQ6amIj6jzrmWI1Ciurqr3feKQOP5TpC4UT/+oP/+Ec4g1fTDsZsu+2204ORRbmILxgbOgktU+bIN99qlJsvn6fK7j165Hx67bpeV7ny/67IHFaDz61daHDDqAZluw/2kaIiSxpE7zAIkqdEnZAC9A2IjXOcoMwicCJYAFlF4mY2I/3kHir20OqKz96UqgmNeExfBT/rDxPNGLDPZhJxxw32gWOsGkOul4axcuy8Bi68BXMbj1XI8omva7mPxjFuXiOvnWkwb/ThoXHWecjc8mUicH168HRWsd85UV9Hweu4AUHUHxpf6IwaPTprv0NfiHaNDEKIYy50F/ZHlMvtcsghh2Qdky28MA93BVd63K/PfnLe+efLHXfeIffce4+ce+55kutJwvZB18IXOXyquSJIGvNi07/x24FkpJl9DoI7JeqmyOa33XqrnHzySRmS6p9edfU19QsDJe07dJDrr79Ovv5yqrz15kg9Jn82Uf78lz/nDDf99WW/DkhqeDYqTDVM2udffBE50/jSSy6R72ZMlw/ff0+mfj5Fpnw+WR579FFhedf11ksTe00jngbSBHgnTWLIuR5KxXaH10ee6FQROiGo9YV7AyHaVmTq+cQtSrVonutvK1JFquS1X/Zmw14ksW3ye6x9XbsKhhjT7Wtr/HFaJGwGopwGDdMA64CI2nn3AerWu5CHxFHE9VR0jFi2lnKqZk/RlHki8SI6yElWlDlL9c17AOuMeK82lfh/iOBRPlRRYsXOR0vJdoemGNdQ7qAcMyOJPrPRm2++ma1Yy3bfY3fED3eUQYOiJ+swWiMbvflWuMuG/CceH+5W4QvJ2bNmZRPrl+2EsLEP3hsrz2IRrz/cdKOcevLJwhvPH/9wk3yIl49vYMmBfELKbrzxJl9moTMdsfTAVltvtVpiT4Lv99NPEAQQQbyGM888I4LDVD2Lp4dZM2eG8m2++ebyybiP5JKL64c1nn7qqQirfEO46UUYMWqkUJEfmX0wCqfbxhvLJptunFa1MGI1ToZ+XnfdtVhkrpXfZt1115WDDz5IyydNnKA3KMrltZ900ok+3+pkmsSQc0Dle8AfWFKu6NMAR4s2YcvUBw2LpUgcSBbneuDcou44yvRgGfNILVrX1GuzctrHsmp07sc2X0mLZ4v8OAlPA3H0WYXB1GGMCv3Vj82xaXQN+jOo2DwtGJ+15wPHBVkEbq+FCDmBjZwZaVOLMMOVU7ErEFE1nzhAiqhh7M0TCVLWeag7GMXj86F7X2/Kl3pqUURPucUV0qrPef6lrclMLmP71qjR9YbD2ZZRUSdHH3WUtuncubPssuuu9drbgg/e/0CWZES98JxRLWFExLzllpuHVctdd98VWscKjue1V4ZHTujgZKCXh70k++63b6Qsupe+/PLrSJ58KxmXfNHFF+lNhPHlU6d8LsNyvBCOkn3JpZfKqIh3GGx7zW+vkQsvyO93x7DBKHr4oYelbdu2oSwbbrihPPP006H1rHjw4Ycj6xtSudU2W2v46Me4uczGhB7eZC447/w0EcvxxBlGnGPB7zeKeIOi3Oee/U8UW4PqmsyQF6+3vVTudlo6AieKhoEiKarkOQ7GVlukauOqyaO74Bg7yBZGFtoblM62lBOTxaOHkD0/mgM0DoMag6GO1eKFpxI7MYfGfyOfSukDp7OE6Bs8sK42rlzH57fH+IqAxoG8V3wN/zumbvIaixAzzjJVtF4rr8SQj8C9c+rCfiHkUT4OyxLqg1S53xlStFHvYNEay+8CdBqFlPgyjm/jg/RCRHgXV1g85uiUr/XoHC/PMpe/fSVHjPnhhx4WHEpa/g3Evke90KM75aF/PJDWJurknw89JETGUTT0haFR1XnV0b1Fo3vD9dcXZEbpLbfelnNNm//7v8vl8ssuy2t8c+fOjQzNOwrr3EfdXG0nW2+1FcIa+9rTeum7OQxnvQYhBXQTvQ19Hn30UbIxEHMYdYFfO4oGDjpeLkPMfa6QwvUy3CxRMnPVWbuRi69R9WV7nS9FnTal3VT0bRE4UauiTUWlJqJDkbgib0anwJACcVp0bvzl9J8rSNbUyiLqrZ47XZa++PucY+Tkn+Q8ICH2iynzOjAORP30GCTLOVgPOWfzgfMGQPRtUw82YyegUrTDIofV2Nxh9lQjk7JgxFP+b7ZFH15/ti/tD8PQlPU6jhQCZ3nqXQLyqC9et7uUH1D/cTSnEgrIkGuG5EsZi2i9ETGDb09M9lhnnTb+6I47LmXU/cJAZljGzNARcGtE0QkRk4CGY6XEKDrt1NMikXhmWz5eX3pp9Hfz5qi3Mpv55/q78M+yZ3hzeXHo89IdL3DzoVxx5HPmzJG///3vkaLOv+ACufo3+b8MHjEi+jsZlOOleXAwB0eEjVZhdynGuq8OHYI19/niNh/afLPwJzvb/t9wv+2x+x5yOGLEOYmJyxA0JTWpIY9hJb5Wew5OG7+PNG2phzJT6NZWmJQYVQ8YMxO8n45KeQE8loyJfvyitNgc+P2IlBM1MIY4aHlhFDVlHkc9HzgMNxG49YGDKR1RsxWc4DGEGgqM+YqJbxgGDJPbuRUDdtsR10PgFOaR5eEw/LytDKTmXUJMKvc/U2KV0fHcgWZNkj0hx8SMNxEiZonrk0RN1DkmYxciGsO9scZFGL0Hn3TwjyNqkawttthCevbsGSZKPv74k9A6Vpx7TsPDBgefdnqkzKlTvgitz3zxmI3xjjv+gnVINstWlbXMf8eStTa/wi23yG3AgpI++hhPvxG0fMVynabPqfq5jggxWvXhuA9zsYTW033z6CP/DK3PrCDgiHL9Bfn5u+ckpl6b90IU0DGSa45FsG1D8gVbayWs0/JdB0vN5Nek+tsPYPFoogzihAUFysTMTaR0lRh7SvSKExgz4yv2zk2Rlifh06Yca3+Vn1KXzZeFj14kHc+4L/tQ5nwiyUXfQz6E11QB9dJlgnY8Z4dMzAdSomFzbmd++XWoMFUmZfuikgo8INRJLfy01Ut/1lsPgDhCDsFD9O0Rc7wu3nj4VKJkOmKJf84c69m3X21qUZGQ8s33krJ91mykiu0+mDJMkOtgcAp1NpqKt/tzMctyvS5d5Pmh4duucfchrqWRSTTuYyNCGYcNH6YvHOkaWbki3G956KHR0SoLsZZ6GDE8rFu3bmHVoeV82bXNttsgYiHdvRRswEWi1l9//WBRXnm6tHKF/OUlqIFMfMHZv1+/nJEkVuyCiJeC5OHM1ELRrJmzGi0qn5e2mcKvhIvp+BNOzCyOPOe7HR58ycl3TNle8EYKiKikTWlyqtjzbBgga7g8xAkjTrJRKcF6lnNGp6J0GHElaw8DckwF5YAXfEvGPi/JVUtNcfCT1hDhhqSiOrhUMIsTtwicGQTOfE4fuLGuKoPtDOFmgCiVJHzjUtRKlnz0Eibl0ydOIw6UbtnIzHHjsAo3o/bEBOptib2B+HyQZeW12v9cy7bW08MifM8cHGfNkV5/I/wxe+999017y68N8EFfJSMHwuhlz3UzPCRCxrYblOPJIWq5gMrWra2YBqfdNoq+AcyYMTOrzFyulcMOPTxru6jCXK6VqLa2ji/yrrjyKnuaM52/YH5OnkIx/Jxj6Yaofk7Fy8eGUp8+faSxcw4YaXPzzbfI7nvuJTNX4wYUHLO1K8GygudLt+ovrX51lMJuE3kC/zdQr83Tz81QQEaSKCCHUUYOPnJ8KioFMqVvGgf+4yBS9Q6vnPwJxITP+wduGpk0c6wkl+NHBeGJmpVITduG+MDNwGBNNcLFSykHa6mwrmruDIg110Q7z+Vu9Q8SPLY/m2b1gZsLM20QROM1Q5rylVNeq12ORbjhwZlXuNbOo3zPHNQbr78hn3z6qfw096fQMR4Xsn5LZWWl7LPPPqHtPvjgA+FU6TFYFyWMGIWQrx85m4y6WjwBNpLox46iOvxeG0N777VHY5oVpM0IzNp9LcemHbYj/obXFC1eGD7JLGoMnLTTbp11olhC66644nL1q5eVw63aCJoxfbr0Qxgv12xZXVojhpyDrNj3PCkqrVQETmRpZ2lmuwDjL7dQ3HAA5yLDI52M7y9VvvzTkVIzJ6CYqiUeGgd6rkPsOF0zuIn4ceAwoLl84DCrXqcYkz4RcGy4+SC8kn7weKxUlk16S6NTNEKl2GO3Tw849UfIa/eq/acQe04+L46ePBaB2+qi8jZSceCF9rRZpIwoiJoM8zH8pFHhYwyfi5oAdGzEFnOcGHPzLbfIfEwlD6MjsKhRLuIYwijK7RLWxpZHjYs89M1mo1w+8t69e2drFllWCB+57eAqvPBcEeHKsnydET+9pqiIkzUaQZtFvDvJRxwjXUbiafMkrM3TJiKMMkwWo6VOO32wApIwnnzK4RNYM1S83jZSvtcpsnykiSsF0FTzSFSuxNs3y5By3XH1gbMC9cqBcho29Z2z3LvdE52bU5tij4h//lo2uPEtUz7rfUlW4Y0x0X2V50clyvWMs3Vh6GhUhFcD+TzleGhUgfdNyvHqQFBWhkiVuqSs/H6KPi2Qk0vU8ifF62MrO06TN5KMXPrArS+evCDtXxsib8w9L5OuH1a16jNYijfcTlmb08dhmDF5zz33Zh0Sje3TTz+TtY6FB/TtG1rHCq62yMf5sEWbHnlkSGT74/OIjODMQs5GzUZccY8r9e2www7ZqiPLpuAdQRRFvYCNardOIxFklMxg3Wa9ekXO6uTmCVdfc43ce889wWb18pwPEEX0FZc3Es1myu2NpYYbQ3w/s7q01ZZbyt/+eqf8HuvJcN2Zl7EAF9F2vsSIoUeGDFktn/kaM+S8qMo+l2BK/Qip+3lG/WtM2Dsq/AogY8aMbWONZ94C5UGOVAsavZVffyxVmB5f0QN/fD9OBlKGicVMTkrRl42wigS+RP40kPqpGXNmjK/p0fjSMR7vhqHnYIuVtYKtLZJa7Q9x4zTikFkChE6hmaOzhlm7g2grl+fk9e5LWh3ktXwlXXtJRb9LTH0z++RCVGGGPNdQj8uxTgfb94WxfzVHiGC2fvRlbAjqDfJv0m3j0Be25Hvs8Sf0DzXYJleea8JwQ+ow2mTTTcKqcpbT5dRUxA2pOVHlgAP7RT7yP/fc8zJo4MDIDax79OweOUy+ZDxj8OBInqauLNSNhONkNMu1mCzFgzH0L2A5iicxmWl6HmvSc7/b1Xn5aa1nU+tL5ccq20urfU7XOHGuS8I4cbVgiOzg7EoeLKKxtTMfmbfncZbbAzHnZlZloMyrQ5XMe/I6kdkfgAdysYt9omYF5ABVowP6nW2q0Bnt/NQbE/sBo44DDVP9sgyWN4FwQ8pZ9jmjccwY9ZEYZdavzZR1euiFccypIlax3yAfm5gyMyZ7vZX7nyWxVu3XyPfU0E6ILImuGkoMMcxnC63GRmgccUR+LwUHHDQgcujPPfecfBOxGFe2xjf98Y/Ziv2yAw84wM83l8yOv/qVP9vwgfvvyzmsy3Ms9tTvgAMjZeRadyeycaEqCbyagDjZ58ILL9AlHSZ/NinnmjSzciwPkWuITXMVEb1WwlfequduMFZAxP66Kh5+hYVkLtM3bM/NjEow0NipA4PDRwtMiSf5fBBe0XU9WPOvFfnGqvGCE2XG924QsKJmtaRsSYtKomBzGCRMZ4laWyNHZTDcED5VdFa3qlZqf/oWTRAvjvj0Es9Pp1dDa++5R8x4tQOOVg/Tvynz+bTOjEWvxWtfscW+Ur7vmR5z80wOO+zQBg+sf/9+ebXhOhWNcSccP/D4vOQf5S0NEMZM99AZZ52loZRhPMFyzurLtVbJsVijpTkRb6rP/vs//pB4Y74wx5Z933//PabrX+u3yczQHUW3VRhxSQWGjjaEXsfEr3z88w2R2VhebkbBm1nYapxWLren42Sjc87JEojhMUVtn2jlRKVr3JBzMJV9zgIyBYoF0k3U0d3BdU9gD4mWdXanQeu6vgr4ONNT+WF4mSpK1QgXoG1F2ETy2EEINpC8RO6d9jwYfBBKlwoiVRSBK9q2CJgpZClSpkwDlf2IEvZD1O/xGGSMsXKtcYQc0vgu/uR17A5n2tKtwqgbNDBtkPLxIg2B4x5h0brPx/uGonK0y0T+lIFxtDqgcPG2UT+G1ak7IWJBqjC5fDTPl/ohfrkhtONOv8p7f0fGuefaFOGbr7/BFmb7yKOPPRY6DE5QOvu884Sz+qKIC2vls0tRlIxC17Vp0yZtZi3l3/i73+miUVF9PYpV/RiVFEaHRszIZJuzYQxpnPOhK668Uk4ffAYiPQ7K+6aaj9zGfSiu1QAAEKVJREFU8HDWKjejeOaZZ2TnXXeTu3PMimUfB0fsFVuxmr76tWLIy3c4Qlr/KoXgFMFabcIienM5NbXF9VJaTkXlBuNixW/8My8m1+9ztBTVLAXyBZ5muCHhL/57H0h4YpG3l8KI0oVCBE40rKk2MRN42JbKipWZCIeqRQskvmIxJ4piPRXO4CQzyIiDDO1Qi7TKngaROmoN4keqfaIgo75yrxMQbhj96K+drOUPbjTMUL98iSvC0R+bLw3EBgcNoSPzdKtYmX+6/TbEske/+GK8+TXX/Fa2772jbkbw2OOP64xEokoi011221WGZyxLYOUH05v/+IfgabPO333X33KO79JLLwvluQE3g7YRL2dramrUOBPdhkUIcdniHX+1kzz11NPaz7Rvv5V+/foXbOGx0MGHVPCJ4MqrrvJrl+F3cSvWqenZa3M59bTThJuT8IVwkLio2x8RYRVGnTpGr80T1s6Wr9GXnbZTpq0PulRWTH4bE3iWGbvqGdu4+pXJQTQME0jDiBR4lbYUZcYimjQV3WLLiW7bbr+7xFYtwnoqCDfkmiok37BCIOVSGD/VeLPa3AS0H68v5QEbRmJ4ubohNlTGSiey8IPhMMI07QkpLSWTseR+NyqcH15r7dP2w14YtcIejGybEMVbKqpohxeczSvc0I4tW8rd46OmngfbHJTDLx3kZX7//ffThagW5jnxY1ADDT99mtdj8SlOp85FP+FF1hPY/b0xdPbZZ0VunEGZ/m+5MR2EtMk1ISisT649z41E+HIzjGhYueDWddf+th4Ld765+jdXQbe/q1cXLCC65UFXTOfO2GmsvEL1MG3at7IKa6lkEnfnOQTuvCcef0z23muvzOq8z4OAK99GjNjJNNRsy71duZk0D04W4rT8nXfaWbjhySfjx0vU2udR8yXyGRct0Vqh0m47Stu9B6mt1AF49oz+bsa8xuB3Tot9tfX+aI3hNHts0iwSx4tsdOQ5UlS1VG11DKkh25hGnHm9OyBlO56nUrumipHL1h4iR7sk4rhJq76fDiNsVEe/OFdgtMScnkGsSfGZVm/Goj5wr5E/u9UKYYo2lQeeKcUbbBMsbdb5k07IzyfNizh+EL77BtKA/v3zasF1MDrlWH0wm6Cz4Qc/OmRyUjb+hpZxYaZbbr45d7M0NJCbPS+OAEDIxu8DiiyVt95yW87VHLngVtjSvOecfbYceOCBWSTXL+LuUXRjTZ48WaNmshlx24qhoVw7PWppZMsblobdwML4uURt1E0t2I7X8a9//UuXmYgy4mxz5hmDg00bnF9rhpwjbXvYb6W4UzdFxfSH62qHcCpz1qf6x1GmfnSUUeH+ARRtZoXSJ24O+qeLWq0jrbt1hxGErxpT9ZNxrDXOHzD4Q33grAOPkU1/vXdo3zT8qEMnMaynQuMar4VvfOIY8NXh1oGNKeDi4d+dylA54IdMFvrjZV778coo1qunD1zz6uBPtSneYAtp1f/XDf5C12YDrhsStU2bHdt64Ns1Yr1xy5eZ5lqky/LnWgLX8mVL/4FojXw2h8jWNqrsOLzczHdhJk4yKzQVcTPwCCrCu58wYljdbbfkvgFdeHH40+PDDz0o3bvjb7PAxPjtxty0/WE0UNc//jRXVtef7fftZU455eRGzVMIygn/9oJcTZRnOOI6fU71pfvIFIZO0azW0Cj6LH5Gd9whk4W2SLsdfRZebmLyD90zVctQCQOs6JvhhhCCgwicTTRVaQEfeL1+wAtRHAB940Tpy775TFvR/86YcfrIU2Mla+DM78cI1ppgvUoyH34r1HN8rQ88G9NhzRNAgK3ZZw8//LCcYzwEUSiNod133y3nH20JXF/H5TEJKKr/F7FW+ODBg/UmHcWXTx3Xirnrb3+T+7AlXL6UQMhsoSmORd2iiAAmihjZk2vDDC4QFvbSj7HvI98Y2agbeLZxFeN7vh83XU4YWx0iSGsIHT9wkIwZNQq7MOX/PihK/p5wXd2OjZxXl9aqIefg2x78f1LefUegXqBsolQPoWr8uCJbMMGwKWrFuUHMJjJFka/yJKRyQ8wSwxRZXT+FaJyo3EPCGj2iCNhD3gEETh79EROB88fsHYxyoSxG1NCgxmFda6rjsvzbCToWjl2RE/gNAocphhHmOClDEbj2aVC2joV1kKtHBgL3ETralm+zPzZTPoNdtDg6YdAJOcd8MqYzN5aOyLJKYlAWXzg2du0MK4dGgi8/Hx0yRHo2YKlY296mXIZ39Ki35MQTc+vEtmHaFIg8hmuKIgKTXHQ3bki51o/5K3hmhGztRmQ//OVhcgHiq8srol8sR42Fm2jzZru6Rpx9FBGJNZB69Oghb48eJbfi5SVnwTaWzjrrTL0ObqqyurTWDTkvoH2/c4F2DVGt5gAK1pg+rwI2UMlDtDYm3CuV9frT314LPwuQRzUjVmg0IYMpyCJw9YFrSQqJ66n3QQRuZ3FCABA31jPELM5iyFr82VhvbEUaM64/gQyEnerPXIci9AyetP4wPCJwkm1b2f98U9ACPxkzy9C/MOKMxqid7MPa2fJc7pWjM9Y1t+0akzJ+/f2x78qQIY/IXnm+UGO8+/77768v4YY+/5z0asQfuv7uGzPgiDZp75uy8OXT5wYbbIAXl1dnaZ0q4iYPF+fYxPqmG25AnP3Hcvrppwvj1/OljTbaSK688gr5+KMPC+b+Smr0W74jSOejIX7v3Xd0e7+B2Lgkas0h25ILbB1x1JF6g+eNoFCEl7aEiWuf5t05SJZhWn3SnyRkhqVRLByeZwx1FiRPrXHE8Dtss4d02Wd/vRkkls/TuHH1qCiU18b8AEGmvVybosy6T8hBVM6bCjC1mcIP9w83jViJN9Lz335BjS63b6soN3fy1Dj4iIaWvlxKAxGBg3R9caZmYMiY9kTvSt555T5YfOeM7OuWGMbm//ktohjCtrmiMdh2NR9L38KjLZ/YstHeeFRtqinsDCF79tlnsYXdF7Jg0ULhintEUzTWW2ACzU64gTVmTZZs1/FLKuNaNiOxKfdMRHcsWrBQFi5ehHdRddKufTvp0KGjrtl+KG6qjXmvsqb1yIk9H2Ki048//CBcxnfxIgZcJIQGfM899pCmmtHbbAx5DTZR/uG2o6SOC1zxb1T/UIFRvT9Y+4ebbjjJFpPNz78RAYHV8I9jw4ilc81357Vj+6BhpoFW0vp0I06Fm35N/8mSMrxA7agt5ox8ziyBC5bSsiIpLSGPEcVP9sPIGTterVEbnW6oDR/cLYrt2TBVX9S6o3S47hUpXm9Lbe4+nAacBpwG8tGA9Wjkw9ukPGU9d5G2exylvmUaUzMDkj5qc9gZkamUPDEg8UPViJMvuWKhGtJgFAplRfnA4ZRXY6q+cPWJwzpr/zC15W1V3nLschNftYLFek63Gp8c2D8Ns9piL5/mA/fkKI+XJ7MaezZCfyZv0tYMN3RGvEl/Z06408D/ogaajSGncjucfLuUIRzReJfTh8Z5m9gUk2weljX1Hbbb1ZRVr8CSstVwhxgEXi8OXLnQFvYz6AM3xXSjEF6zrZci3DCGCUDEyws/eE3ZtC0c2lxShY4RdY7AgPvkgWv/nDwQl+kD13qvndaBp3zDraXVQZcHm7q804DTgNNAXhpIt5Z5NWk6pqKKttKuz0kmnlzXUiHaNYeufOghWLNDUELWH4BogHiVovbkyvlAtxFx4BqFwnoPgXNdFEXgpo1BzUDLjJoBb7wV0DjSJdO/0d2KGKdOZE8grQfkMDLGRM6wnT239QZlWzTOvvy2lJGB1lsNwHoq5dE7yjSd5p1kpwGngZasgWZlyKnI9sdeJ6034eYJGUOzCBY1fNFcVFYp7XptpQg6tgq7AMGQpiJZiKpJ9X3gPuK2yJsInqiZvGwCiMydeLB6itTVJmTppPd0ByHEhJl68pCIvnGwHV9csq3F5lpGHjsM5j0y/ZgK85IVG0Zs3w/hhqdZFpc6DTgNOA00SAMZ1rJBbZuMucOhFwDAWt84TJ+6PYB6YTmNjxxT8Q87Wbdu09mb3I8T6DkVB04DHogDBxQO+sDVn24RsaJ8yiWChmXmeQX28EN+0RcT/XHwnMPQ/jXWHWYbBjyFrJlnmZFFOWygY9c+TN7yc0qq7a+yf/iMuCZTshPsNOA08D+jgWZpyFvve6q02ym4roYZplmkqkgqu24irdf39jtcuSjty8j0gfsInFYYtwL1nSPvI2MgcPVTw9gqQq40ca1VVdWyfPokla2zSH3UjWVstb3XrZYbhJ0VgXtV2h9RfAa16XeOlGzbN6PUnToNOA04DeSvgWZpyDn89a9+QSo6bwrUivVSFOUaBEtE2+UARLfEqzH/pwarJy6SGNdCUQSezQduolYMEoYMRdMGNev0XLRTZMw+0G+sFMvUomzhR+/4/Zr1XuA3R99x+Mrraj1/uOdvN6ibvnf6zJHwAG/a4fXLtVXs+iplPXaS1qfemf+35TidBpwGnAayaKDZGnKOddP7Psda34ge0YGbobbv1Vsq27UFskbpip8NilYTTLjLyTw0x4HoExjUTB+4j8BVLtkNbI4hjlvFLlwsVQvmoIK9mH4ZNcMcFxfSzStgt7UrJP7kHmR9pA+R1geu/nTyBYhj6HDT6ECJyzoNOA04DTROA83akPOStvzPImnd81eKbmmqO+8FlwvRcxXCDVdx8pAXhUJjDPcI3R40zD4aVv+0h8AJlYMI3DtXQ16EGT6lWAMZ/PPewwxTiEmTgwJU4TCyqoHK60zXZjzqL6ef3PrFyYf+iMApzDtY1mq3o6XrU5zx5chpwGnAaWD1NcD5ic2eNv7Tu7J46O1S89XbUlZRjvHCggKNE4HDQur4TRw4MTSNpkHGrEh6PnAaWCJ7ctuU9YbgmmmLHTrAs/SHOZjBWaWRMZTGPuyaL/5djxEsEFTLF5YQVoIKuyY5z7MSx1RcJm0OvkBan/DHrCyu0GnAacBpoDEaaDZT9PMZfGLedIkt/U5kDqJJZo73zCxNs/fCkmaatl19J15eTTdZyBdIPX8HDXwR/OKJtuuq/3zai0Mg1xpwY7qtbS6C3AQsNVOSLecuI8Uo40pqxdrWu2GADS2kuN360nrv46Wi72Ap6rqZtnUfTgNOA04DhdJAizLkaRddh+2fuAOQxpBjnRUlWvEM8os8Q55RradFxVL78yyJ//SNJMrhJ6eJ9hbaj+mC4zgn1EYAu/rMGciO//pBNK4rqJl68ul5qzZSglmqMdwguO66I6cBpwGngabSQMs15E2lESfXacBpwGmghWnA+A5a2KDdcJ0GnAacBpwGUhpwhjylC5dzGnAacBpokRpwhrxFfm1u0E4DTgNOAykNOEOe0oXLOQ04DTgNtEgNOEPeIr82N2inAacBp4GUBpwhT+nC5ZwGnAacBlqkBpwhb5Ffmxu004DTgNNASgPOkKd04XJOA04DTgMtUgPOkLfIr80N2mnAacBpIKUBZ8hTunA5pwGnAaeBFqkBZ8hb5NfmBu004DTgNJDSgDPkKV24nNOA04DTQIvUgDPkLfJrc4N2GnAacBpIacAZ8pQuXM5pwGnAaaBFasAZ8hb5tblBOw04DTgNpDTgDHlKFy7nNOA04DTQIjXgDHmL/NrcoJ0GnAacBlIacIY8pQuXcxpwGnAaaJEacIa8RX5tbtBOA04DTgMpDfw/6dZhTKQRl7YAAAAASUVORK5CYII=;" vertex="1" parent="1">
          <mxGeometry x="200" y="200" width="115.63" height="40" as="geometry" />
        </mxCell>
        <mxCell id="5Xm6pE8ULsqPC4je_U9q-32" style="edgeStyle=none;curved=1;rounded=0;orthogonalLoop=1;jettySize=auto;html=1;entryX=0;entryY=0.25;entryDx=0;entryDy=0;entryPerimeter=0;fontSize=12;startSize=8;endSize=8;" edge="1" parent="1" source="5Xm6pE8ULsqPC4je_U9q-9" target="5Xm6pE8ULsqPC4je_U9q-13">
          <mxGeometry relative="1" as="geometry" />
        </mxCell>
        <mxCell id="5Xm6pE8ULsqPC4je_U9q-33" style="edgeStyle=none;curved=1;rounded=0;orthogonalLoop=1;jettySize=auto;html=1;entryX=0;entryY=0.75;entryDx=0;entryDy=0;entryPerimeter=0;fontSize=12;startSize=8;endSize=8;" edge="1" parent="1" source="5Xm6pE8ULsqPC4je_U9q-10" target="5Xm6pE8ULsqPC4je_U9q-13">
          <mxGeometry relative="1" as="geometry" />
        </mxCell>
        <mxCell id="5Xm6pE8ULsqPC4je_U9q-38" value="" style="sketch=0;points=[[0.015,0.015,0],[0.985,0.015,0],[0.985,0.985,0],[0.015,0.985,0],[0.25,0,0],[0.5,0,0],[0.75,0,0],[1,0.25,0],[1,0.5,0],[1,0.75,0],[0.75,1,0],[0.5,1,0],[0.25,1,0],[0,0.75,0],[0,0.5,0],[0,0.25,0]];verticalLabelPosition=bottom;html=1;verticalAlign=top;aspect=fixed;align=center;pointerEvents=1;shape=mxgraph.cisco19.rect;prIcon=primary_codec;fillColor=#FAFAFA;strokeColor=#005073;" vertex="1" parent="1">
          <mxGeometry x="890" y="242" width="64" height="50" as="geometry" />
        </mxCell>
        <mxCell id="5Xm6pE8ULsqPC4je_U9q-39" value="&lt;span style=&quot;background-color: rgb(255, 255, 255);&quot;&gt;CDC&lt;/span&gt;" style="text;html=1;align=center;verticalAlign=middle;resizable=0;points=[];autosize=1;strokeColor=none;fillColor=none;fontSize=16;" vertex="1" parent="1">
          <mxGeometry x="892" y="240" width="60" height="30" as="geometry" />
        </mxCell>
        <mxCell id="5Xm6pE8ULsqPC4je_U9q-41" value="" style="shape=flexArrow;endArrow=classic;html=1;rounded=0;fontSize=12;startSize=8;endSize=8;curved=1;fillColor=#f0a30a;strokeColor=none;" edge="1" parent="1">
          <mxGeometry width="50" height="50" relative="1" as="geometry">
            <mxPoint x="970" y="270" as="sourcePoint" />
            <mxPoint x="1010" y="270" as="targetPoint" />
          </mxGeometry>
        </mxCell>
        <mxCell id="5Xm6pE8ULsqPC4je_U9q-43" value="产品生命周期&lt;div&gt;数据&lt;/div&gt;" style="text;html=1;align=center;verticalAlign=middle;resizable=0;points=[];autosize=1;strokeColor=none;fillColor=none;fontSize=16;" vertex="1" parent="1">
          <mxGeometry x="1011" y="245" width="114" height="50" as="geometry" />
        </mxCell>
      </root>
    </mxGraphModel>
  </diagram>
</mxfile>
